<svg width="332" height="309" viewBox="0 0 332 309" fill="none" xmlns="http://www.w3.org/2000/svg">
<path d="M165.532 308.378C256.953 308.378 331.064 265.597 331.064 212.824C331.064 160.052 256.953 117.271 165.532 117.271C74.1113 117.271 0 160.052 0 212.824C0 265.597 74.1113 308.378 165.532 308.378Z" fill="#F5F5F5"/>
<path d="M274.95 256.088C297.807 256.088 316.335 245.39 316.335 232.194C316.335 218.998 297.807 208.301 274.95 208.301C252.093 208.301 233.564 218.998 233.564 232.194C233.564 245.39 252.093 256.088 274.95 256.088Z" fill="#E0E0E0"/>
<path d="M126.787 283.823L24.1219 224.549C22.4372 223.577 22.4372 222 24.1219 221.027L172.544 135.335C174.229 134.363 176.96 134.363 178.645 135.335L281.284 194.594C282.968 195.566 282.968 197.144 281.284 198.116L132.887 283.822C131.203 284.796 128.472 284.796 126.787 283.823Z" fill="#E0E0E0"/>
<path d="M295.838 218.493C294.953 212.422 297.216 189.292 302.365 180.492C307.514 171.691 316.066 162.447 323.452 163.828C330.331 165.115 330.874 173.813 323.756 180.669C316.637 187.524 305.731 196.423 303.672 206.779L298.062 224.41L295.838 218.493Z" fill="#27DEBF"/>
<path opacity="0.1" d="M295.838 218.493C294.953 212.422 297.216 189.292 302.365 180.492C307.514 171.691 316.066 162.447 323.452 163.828C330.331 165.115 330.874 173.813 323.756 180.669C316.637 187.524 305.731 196.423 303.672 206.779L298.062 224.41L295.838 218.493Z" fill="black"/>
<path d="M297.484 216.588C297.674 216.538 297.814 216.366 297.817 216.161C298.135 194.824 311.778 175.062 321.087 169.558C321.3 169.432 321.37 169.156 321.244 168.944C321.12 168.732 320.848 168.656 320.63 168.787C311.144 174.395 297.243 194.487 296.921 216.148C296.917 216.396 297.115 216.599 297.362 216.603C297.405 216.604 297.445 216.599 297.484 216.588Z" fill="white"/>
<path d="M300.821 227.725C301.299 224.17 303.785 218.036 309.411 211.966C316.3 204.531 327.743 200.443 329.334 196.122C331.246 190.93 326.883 187.386 319.449 189.749C309.454 192.926 298.305 205.404 298.447 221.453L300.821 227.725Z" fill="#27DEBF"/>
<path d="M298.816 224.36C298.983 224.322 299.119 224.19 299.156 224.011C302.921 205.333 318 195.272 324.155 193.543C324.393 193.476 324.531 193.229 324.465 192.991C324.398 192.752 324.16 192.611 323.913 192.68C317.107 194.592 302.121 204.769 298.278 223.834C298.229 224.077 298.386 224.313 298.629 224.362C298.693 224.376 298.757 224.374 298.816 224.36Z" fill="white"/>
<path d="M90.9486 17.0922L85.4696 20.2557C85.4969 20.0112 85.5156 19.7681 85.5156 19.5307V17.9431C85.5156 15.1183 83.5324 13.9732 81.086 15.3859C80.0948 15.9578 79.1841 16.8641 78.4461 17.9244C78.0454 14.3724 75.2588 13.0496 71.8736 15.0032C68.2137 17.1166 65.2472 22.2547 65.2472 26.4808V28.8553C65.2472 29.9501 65.4501 30.8715 65.8083 31.6067L61.2571 34.2344C59.9005 35.0177 58.7999 36.9232 58.7999 38.4899C58.7999 40.0566 59.8998 40.6917 61.2571 39.9084L90.9479 22.7662C92.3053 21.9828 93.4051 20.0774 93.4051 18.5107C93.4059 16.9433 92.306 16.3081 90.9486 17.0922Z" fill="#E6E6E6"/>
<path d="M21.7654 24.1602L24.788 21.8325V15.1744C24.788 9.89603 28.9982 3.76955 33.5695 1.13035C38.1408 -1.50884 41.8461 0.631141 41.8461 5.90882V6.87559C42.8833 5.2643 44.2227 3.87817 45.6872 3.03224C48.9767 1.13323 51.6432 2.67258 51.6432 6.47061V6.91012L55.857 4.47736C58.0236 3.22646 59.7795 4.24071 59.7795 6.74179C59.7795 9.24288 58.0236 12.2849 55.857 13.5351L21.7654 33.2179C19.5995 34.4681 17.843 33.4546 17.843 30.9535C17.843 28.4524 19.5988 25.4104 21.7654 24.1602Z" fill="#E6E6E6"/>
<path d="M30.4578 216.393C30.4578 218.382 31.9468 220.854 33.7825 221.913L126.929 275.691C128.765 276.752 131.742 276.752 133.578 275.691L271.624 195.998C273.46 194.938 274.949 192.466 274.949 190.478C274.949 188.489 273.46 186.017 271.625 184.958L178.478 131.18C176.642 130.12 173.665 130.12 171.829 131.18L33.7818 210.873C31.946 211.933 30.4578 214.405 30.4578 216.393Z" fill="#37474F"/>
<path d="M130.255 269.291V276.484C129.05 276.484 127.845 276.223 126.931 275.694L33.781 221.914C31.946 220.854 30.457 218.382 30.457 216.394C30.457 214.528 31.7698 212.24 33.4437 211.089C31.9539 212.156 32.0698 213.722 33.7817 214.713L126.932 268.493C127.844 269.022 129.05 269.291 130.255 269.291Z" fill="#263238"/>
<path d="M27.3388 210.992C25.6168 209.997 24.2206 207.473 24.2206 205.353L24.2198 94.1958C24.2198 92.0759 25.7081 89.4979 27.5438 88.4376L165.591 8.74444C167.426 7.68416 170.312 7.63093 172.034 8.62575C173.756 9.61986 175.153 12.1447 175.153 14.2653V125.422C175.153 127.542 173.664 130.12 171.829 131.18L33.7818 210.873C31.9461 211.932 29.0616 211.986 27.3388 210.992Z" fill="#455A64"/>
<path d="M33.3889 211.073C31.5539 211.933 28.9435 211.918 27.3394 210.989C25.6195 209.998 24.2225 207.473 24.2225 205.353V94.1928C24.2225 93.1332 24.5908 91.9585 25.1972 90.922L31.4316 94.515V94.5222C30.8331 95.5667 30.4569 96.7334 30.4569 97.793V208.954C30.4562 210.92 31.7387 211.802 33.3889 211.073Z" fill="#263238"/>
<path d="M30.457 97.7968V208.954C30.457 211.074 31.9453 211.933 33.781 210.873L171.828 131.18C173.664 130.12 175.152 127.542 175.152 125.422V14.2654C175.152 12.1456 173.664 11.286 171.828 12.3462L33.7817 92.0386C31.946 93.0989 30.457 95.677 30.457 97.7968Z" fill="#37474F"/>
<path d="M33.7817 214.712L126.929 268.49C128.765 269.55 131.742 269.55 133.578 268.49L271.625 188.797C273.46 187.737 273.46 186.018 271.625 184.958L178.478 131.18C176.642 130.12 173.665 130.12 171.829 131.18L33.7817 210.873C31.946 211.933 31.946 213.652 33.7817 214.712Z" fill="#455A64"/>
<path d="M35.5701 96.3069L169.045 19.2717C170.147 18.6358 171.04 19.1516 171.04 20.4233V122.981C171.04 124.253 170.147 125.8 169.045 126.436L35.5701 203.47C34.4688 204.106 33.5754 203.59 33.5754 202.319V99.7618C33.5754 98.4901 34.4681 96.9428 35.5701 96.3069Z" fill="#27DEBF"/>
<path opacity="0.4" d="M35.5701 96.3069L169.045 19.2717C170.147 18.6358 171.04 19.1516 171.04 20.4233V122.981C171.04 124.253 170.147 125.8 169.045 126.436L35.5701 203.47C34.4688 204.106 33.5754 203.59 33.5754 202.319V99.7618C33.5754 98.4901 34.4681 96.9428 35.5701 96.3069Z" fill="black"/>
<path d="M44.5938 211.833L173.492 137.423C174.409 136.893 175.898 136.893 176.816 137.423L182.867 140.916C183.785 141.446 183.785 142.305 182.867 142.835L53.9515 217.235C53.0336 217.765 51.5446 217.764 50.6268 217.235L44.5938 213.752C43.676 213.222 43.6752 212.363 44.5938 211.833Z" fill="#37474F"/>
<path d="M60.1881 220.835L189.084 146.424C190.002 145.894 191.491 145.894 192.408 146.424L229.626 167.913C230.544 168.443 230.544 169.302 229.626 169.832L100.865 244.149C99.9473 244.679 98.4576 244.681 97.5375 244.154L60.191 222.75C59.2717 222.222 59.2702 221.366 60.1881 220.835Z" fill="#263238"/>
<path d="M173.459 178.064L177.518 175.721C177.69 175.621 177.693 175.461 177.524 175.363L173.241 172.89C173.072 172.793 172.795 172.795 172.624 172.894L168.565 175.237C168.393 175.336 168.39 175.496 168.559 175.594L172.842 178.067C173.011 178.164 173.287 178.163 173.459 178.064ZM166.504 169.362L162.446 171.705C162.274 171.805 162.271 171.965 162.44 172.062L166.723 174.535C166.892 174.633 167.169 174.63 167.341 174.531L171.399 172.188C171.572 172.088 171.575 171.928 171.406 171.831L167.122 169.358C166.953 169.261 166.676 169.263 166.504 169.362ZM153.393 176.932L146.525 180.896C146.352 180.996 146.35 181.156 146.519 181.253L150.801 183.726C150.97 183.824 151.247 183.822 151.419 183.723L158.287 179.758C158.459 179.659 158.462 179.498 158.293 179.401L154.01 176.928C153.842 176.831 153.565 176.832 153.393 176.932ZM160.573 172.786L156.514 175.13C156.342 175.229 156.34 175.389 156.509 175.486L160.791 177.959C160.96 178.057 161.237 178.055 161.409 177.956L165.468 175.613C165.64 175.513 165.643 175.353 165.474 175.256L161.191 172.784C161.022 172.685 160.745 172.687 160.573 172.786ZM144.652 181.978L140.594 184.321C140.421 184.421 140.418 184.581 140.587 184.678L144.871 187.151C145.04 187.249 145.316 187.247 145.489 187.147L149.547 184.804C149.719 184.705 149.722 184.545 149.553 184.447L145.27 181.974C145.101 181.877 144.825 181.879 144.652 181.978ZM138.72 185.403L134.662 187.746C134.489 187.845 134.487 188.006 134.656 188.103L138.938 190.575C139.107 190.673 139.384 190.671 139.556 190.571L143.615 188.229C143.787 188.129 143.79 187.969 143.62 187.872L139.338 185.399C139.17 185.302 138.893 185.303 138.72 185.403ZM155.54 195.474L159.599 193.131C159.771 193.031 159.774 192.871 159.605 192.774L155.322 190.301C155.153 190.203 154.876 190.205 154.704 190.305L150.645 192.647C150.473 192.747 150.47 192.907 150.639 193.004L154.922 195.477C155.091 195.576 155.368 195.574 155.54 195.474ZM149.61 198.898L153.668 196.555C153.841 196.455 153.843 196.296 153.674 196.199L149.391 193.726C149.222 193.629 148.945 193.63 148.773 193.73L144.715 196.073C144.542 196.172 144.54 196.332 144.708 196.43L148.991 198.903C149.161 199 149.437 198.998 149.61 198.898ZM143.678 202.323L147.736 199.979C147.909 199.88 147.911 199.72 147.742 199.623L143.459 197.15C143.29 197.052 143.013 197.054 142.841 197.153L138.782 199.496C138.61 199.596 138.607 199.756 138.777 199.853L143.059 202.326C143.229 202.424 143.505 202.422 143.678 202.323ZM137.746 205.748L141.805 203.405C141.978 203.306 141.98 203.145 141.811 203.048L137.528 200.576C137.359 200.479 137.082 200.479 136.91 200.579L132.851 202.922C132.679 203.021 132.676 203.182 132.845 203.279L137.128 205.751C137.298 205.848 137.575 205.847 137.746 205.748ZM167.529 181.488L171.586 179.145C171.759 179.046 171.761 178.885 171.593 178.788L167.31 176.315C167.141 176.217 166.865 176.219 166.692 176.319L162.634 178.662C162.461 178.762 162.458 178.921 162.627 179.019L166.91 181.492C167.079 181.589 167.355 181.588 167.529 181.488ZM161.472 192.05L170.525 186.823C170.697 186.723 170.699 186.563 170.53 186.466L160.129 180.461C159.96 180.363 159.683 180.365 159.511 180.464L154.828 183.167C154.656 183.267 154.653 183.427 154.822 183.524L160.329 186.704C160.498 186.801 160.495 186.961 160.322 187.06L156.577 189.223C156.404 189.323 156.401 189.483 156.57 189.58L160.853 192.053C161.022 192.151 161.3 192.149 161.472 192.05ZM132.79 188.827L128.731 191.171C128.559 191.27 128.556 191.43 128.725 191.527L133.008 194C133.177 194.098 133.454 194.096 133.626 193.997L137.685 191.654C137.857 191.554 137.859 191.394 137.69 191.297L133.407 188.824C133.238 188.726 132.962 188.728 132.79 188.827ZM126.858 192.252L122.8 194.595C122.627 194.695 122.624 194.854 122.794 194.951L127.077 197.424C127.246 197.522 127.523 197.52 127.695 197.421L131.753 195.078C131.926 194.979 131.928 194.818 131.76 194.721L127.476 192.248C127.307 192.15 127.031 192.152 126.858 192.252ZM95.6092 229.723C95.7782 229.82 96.0545 229.818 96.2271 229.719L100.286 227.376C100.457 227.277 100.46 227.117 100.291 227.02L96.0084 224.547C95.8394 224.45 95.5624 224.452 95.3905 224.551L91.3321 226.894C91.1595 226.994 91.1566 227.153 91.3256 227.25L95.6092 229.723ZM79.4079 219.647L75.3494 221.99C75.1768 222.089 75.1739 222.25 75.3437 222.347L79.6265 224.819C79.7956 224.917 80.0725 224.915 80.2444 224.815L84.3029 222.473C84.4755 222.373 84.4777 222.213 84.3086 222.116L80.0258 219.644C79.8567 219.546 79.5805 219.547 79.4079 219.647ZM87.9297 227.091C88.0987 227.189 88.3757 227.186 88.5476 227.087L92.606 224.744C92.7787 224.644 92.7808 224.484 92.6118 224.387L88.3289 221.914C88.1599 221.816 87.8829 221.818 87.711 221.917L83.6526 224.26C83.48 224.36 83.4771 224.519 83.6461 224.617L87.9297 227.091ZM105.468 231.449L109.526 229.106C109.699 229.006 109.701 228.847 109.532 228.749L105.25 226.276C105.081 226.179 104.804 226.181 104.631 226.28L100.573 228.623C100.401 228.722 100.398 228.882 100.567 228.98L104.85 231.452C105.019 231.55 105.296 231.548 105.468 231.449ZM98.9188 234.877C99.0878 234.975 99.3648 234.972 99.5367 234.873L103.595 232.53C103.768 232.43 103.77 232.271 103.602 232.173L99.3187 229.7C99.1497 229.602 98.8735 229.604 98.7008 229.703L94.6424 232.047C94.4705 232.146 94.4669 232.306 94.636 232.404L98.9188 234.877ZM85.3387 216.222L81.2803 218.565C81.1076 218.665 81.1055 218.824 81.2745 218.922L85.5574 221.395C85.7264 221.492 86.0033 221.491 86.1753 221.392L90.2337 219.048C90.4063 218.949 90.4092 218.789 90.2402 218.691L85.9573 216.218C85.7883 216.122 85.5113 216.123 85.3387 216.222ZM114.995 199.1L110.937 201.443C110.765 201.543 110.762 201.703 110.931 201.8L115.214 204.273C115.383 204.371 115.659 204.369 115.832 204.269L119.89 201.926C120.063 201.827 120.065 201.667 119.896 201.569L115.614 199.096C115.445 198.999 115.168 199.001 114.995 199.1ZM91.2702 212.798L87.2118 215.141C87.0392 215.241 87.037 215.401 87.2053 215.498L91.4882 217.971C91.6572 218.069 91.9342 218.068 92.1061 217.968L96.1645 215.625C96.3372 215.525 96.3393 215.365 96.1703 215.268L91.8874 212.795C91.7191 212.697 91.4429 212.698 91.2702 212.798ZM120.927 195.676L116.868 198.019C116.695 198.119 116.693 198.279 116.862 198.376L121.145 200.849C121.314 200.947 121.59 200.945 121.763 200.845L125.822 198.503C125.994 198.403 125.997 198.243 125.828 198.146L121.545 195.673C121.376 195.575 121.099 195.576 120.927 195.676ZM109.064 202.525L105.006 204.868C104.833 204.967 104.83 205.128 104.999 205.225L109.283 207.697C109.452 207.795 109.729 207.793 109.901 207.693L113.959 205.351C114.132 205.251 114.135 205.091 113.966 204.994L109.682 202.521C109.514 202.424 109.237 202.425 109.064 202.525ZM103.133 205.949L99.0742 208.292C98.9015 208.391 98.8987 208.552 99.0677 208.649L103.351 211.122C103.52 211.22 103.797 211.217 103.968 211.118L108.027 208.775C108.199 208.675 108.202 208.516 108.033 208.418L103.75 205.945C103.582 205.848 103.305 205.85 103.133 205.949ZM97.2018 209.374L93.1434 211.717C92.9707 211.817 92.9678 211.976 93.1369 212.073L97.4197 214.546C97.5888 214.644 97.8657 214.642 98.0376 214.543L102.096 212.199C102.268 212.1 102.271 211.94 102.102 211.842L97.819 209.37C97.6506 209.272 97.3744 209.275 97.2018 209.374ZM125.884 212.596L129.943 210.254C130.115 210.154 130.118 209.994 129.949 209.897L125.666 207.424C125.497 207.326 125.22 207.328 125.048 207.427L120.99 209.77C120.817 209.87 120.815 210.03 120.984 210.127L125.267 212.6C125.435 212.698 125.711 212.696 125.884 212.596ZM179.615 161.792L175.557 164.135C175.384 164.234 175.382 164.394 175.55 164.492L179.834 166.965C180.003 167.062 180.28 167.06 180.452 166.961L184.51 164.618C184.683 164.518 184.685 164.359 184.517 164.261L180.234 161.788C180.065 161.691 179.788 161.693 179.615 161.792ZM172.435 165.937L168.377 168.281C168.204 168.38 168.202 168.54 168.37 168.638L172.653 171.111C172.822 171.209 173.099 171.206 173.271 171.107L177.329 168.764C177.502 168.664 177.504 168.505 177.336 168.408L173.053 165.935C172.885 165.836 172.608 165.838 172.435 165.937ZM185.546 158.368L181.489 160.711C181.316 160.81 181.313 160.971 181.482 161.068L185.766 163.541C185.934 163.638 186.212 163.637 186.384 163.537L190.442 161.194C190.615 161.094 190.617 160.935 190.448 160.837L186.166 158.364C185.996 158.267 185.72 158.268 185.546 158.368ZM153.792 189.418L157.851 187.075C158.023 186.975 158.026 186.816 157.857 186.719L153.574 184.246C153.405 184.148 153.128 184.15 152.956 184.249L148.897 186.593C148.725 186.692 148.723 186.852 148.891 186.95L153.174 189.423C153.344 189.52 153.62 189.518 153.792 189.418ZM192.096 154.94C191.928 154.843 191.65 154.844 191.478 154.943L187.421 157.286C187.248 157.386 187.245 157.545 187.414 157.643L191.697 160.116C191.865 160.214 192.142 160.212 192.315 160.112L196.373 157.769C196.546 157.67 196.549 157.51 196.38 157.412L192.096 154.94ZM131.816 209.172L135.874 206.83C136.047 206.73 136.049 206.57 135.88 206.473L131.597 204C131.428 203.902 131.151 203.904 130.979 204.003L126.921 206.347C126.748 206.446 126.746 206.607 126.915 206.704L131.198 209.177C131.366 209.273 131.643 209.272 131.816 209.172ZM204.552 167.178L208.611 164.835C208.783 164.735 208.785 164.575 208.617 164.478L204.334 162.006C204.164 161.908 203.888 161.909 203.716 162.009L199.657 164.352C199.485 164.451 199.482 164.612 199.651 164.709L203.934 167.181C204.103 167.278 204.38 167.277 204.552 167.178ZM192.502 167.07L196.561 164.726C196.732 164.627 196.735 164.467 196.566 164.369L192.283 161.896C192.115 161.798 191.837 161.801 191.665 161.9L187.607 164.243C187.434 164.343 187.432 164.502 187.601 164.599L191.883 167.073C192.052 167.171 192.329 167.169 192.502 167.07ZM198.215 158.472C198.047 158.374 197.769 158.377 197.597 158.476L193.539 160.819C193.367 160.919 193.364 161.079 193.533 161.176L197.816 163.649C197.985 163.747 198.262 163.745 198.434 163.646L202.492 161.303C202.665 161.203 202.668 161.043 202.499 160.946L198.215 158.472ZM199.464 157.752L209.865 163.757C210.034 163.854 210.31 163.853 210.483 163.754L214.541 161.411C214.714 161.311 214.717 161.151 214.548 161.054L204.146 155.048C203.977 154.951 203.7 154.953 203.527 155.052L199.469 157.395C199.298 157.493 199.295 157.654 199.464 157.752ZM185.734 165.325L181.676 167.667C181.503 167.767 181.5 167.927 181.669 168.024L185.953 170.497C186.122 170.594 186.399 170.593 186.571 170.493L190.629 168.15C190.801 168.05 190.804 167.89 190.635 167.793L186.353 165.32C186.184 165.224 185.907 165.225 185.734 165.325ZM141.093 191.098L137.035 193.441C136.862 193.541 136.86 193.701 137.029 193.798L141.311 196.271C141.48 196.369 141.757 196.367 141.929 196.268L145.988 193.925C146.16 193.825 146.163 193.665 145.993 193.568L141.711 191.095C141.542 190.996 141.265 190.999 141.093 191.098ZM198.003 170.605C198.171 170.703 198.449 170.701 198.621 170.602L202.679 168.259C202.851 168.159 202.854 167.999 202.685 167.902L198.402 165.429C198.234 165.331 197.956 165.333 197.784 165.432L193.726 167.776C193.553 167.875 193.55 168.035 193.719 168.133L198.003 170.605ZM147.024 187.674L142.966 190.017C142.793 190.117 142.791 190.276 142.96 190.374L147.243 192.847C147.412 192.944 147.688 192.942 147.861 192.843L151.919 190.499C152.092 190.4 152.095 190.24 151.926 190.143L147.643 187.67C147.474 187.573 147.197 187.574 147.024 187.674ZM101.541 226.298C101.71 226.396 101.987 226.394 102.159 226.294L106.217 223.952C106.389 223.852 106.392 223.692 106.223 223.595L101.94 221.122C101.771 221.024 101.495 221.026 101.322 221.125L97.2636 223.469C97.091 223.568 97.0888 223.729 97.2572 223.826L101.541 226.298ZM93.6426 218.493L89.5841 220.837C89.4115 220.936 89.4093 221.097 89.5784 221.194L93.8612 223.667C94.0303 223.765 94.3072 223.762 94.4791 223.663L98.5376 221.32C98.7102 221.22 98.7131 221.061 98.5433 220.964L94.2605 218.49C94.0921 218.393 93.8152 218.394 93.6426 218.493ZM108.09 222.87L112.149 220.527C112.321 220.428 112.324 220.267 112.155 220.17L107.872 217.698C107.702 217.6 107.426 217.601 107.254 217.701L103.195 220.044C103.023 220.143 103.02 220.304 103.189 220.401L107.473 222.873C107.641 222.97 107.918 222.97 108.09 222.87ZM114.021 219.446L118.079 217.103C118.252 217.003 118.255 216.843 118.086 216.746L113.802 214.273C113.634 214.175 113.357 214.177 113.184 214.277L109.126 216.62C108.954 216.72 108.95 216.879 109.12 216.976L113.404 219.449C113.572 219.546 113.849 219.545 114.021 219.446ZM119.953 216.021L124.011 213.678C124.184 213.578 124.186 213.419 124.017 213.321L119.735 210.848C119.566 210.751 119.289 210.752 119.117 210.852L115.058 213.195C114.886 213.294 114.883 213.454 115.052 213.552L119.335 216.025C119.504 216.122 119.78 216.12 119.953 216.021ZM99.5741 215.069L95.5157 217.412C95.343 217.511 95.3409 217.672 95.5092 217.769L99.7928 220.241C99.9618 220.339 100.238 220.338 100.411 220.238L104.469 217.895C104.642 217.796 104.644 217.635 104.476 217.538L100.193 215.066C100.023 214.968 99.7467 214.969 99.5741 215.069ZM105.506 211.645L101.447 213.988C101.275 214.088 101.272 214.247 101.441 214.344L105.724 216.817C105.893 216.915 106.17 216.913 106.341 216.814L110.4 214.47C110.572 214.371 110.575 214.211 110.406 214.113L106.123 211.64C105.955 211.544 105.678 211.545 105.506 211.645ZM129.23 197.947L125.172 200.29C124.999 200.39 124.997 200.55 125.166 200.647L129.449 203.119C129.618 203.217 129.895 203.216 130.067 203.116L134.125 200.773C134.298 200.674 134.301 200.513 134.132 200.416L129.848 197.944C129.68 197.846 129.403 197.847 129.23 197.947ZM123.3 201.371L119.241 203.714C119.069 203.813 119.066 203.974 119.235 204.071L123.518 206.544C123.687 206.642 123.964 206.64 124.136 206.54L128.195 204.198C128.367 204.098 128.37 203.938 128.201 203.84L123.918 201.367C123.748 201.27 123.471 201.272 123.3 201.371ZM135.162 194.523L131.103 196.865C130.931 196.965 130.929 197.125 131.097 197.222L135.38 199.695C135.549 199.793 135.826 199.791 135.998 199.692L140.056 197.348C140.229 197.249 140.231 197.089 140.062 196.991L135.779 194.518C135.611 194.421 135.335 194.423 135.162 194.523ZM111.437 208.22L107.379 210.564C107.206 210.663 107.203 210.823 107.372 210.92L111.655 213.393C111.824 213.491 112.1 213.49 112.273 213.39L116.331 211.047C116.504 210.947 116.507 210.788 116.338 210.69L112.054 208.218C111.886 208.119 111.609 208.121 111.437 208.22ZM117.368 204.796L113.31 207.139C113.137 207.239 113.134 207.399 113.304 207.496L117.587 209.969C117.755 210.066 118.032 210.064 118.205 209.965L122.263 207.622C122.436 207.522 122.439 207.363 122.269 207.265L117.986 204.792C117.818 204.695 117.54 204.697 117.368 204.796ZM111.399 228.024L115.457 225.681C115.63 225.582 115.632 225.422 115.464 225.324L111.18 222.851C111.011 222.753 110.734 222.755 110.562 222.855L106.504 225.197C106.331 225.297 106.329 225.457 106.498 225.554L110.78 228.027C110.95 228.125 111.226 228.124 111.399 228.024ZM78.3778 225.541L74.0942 223.068C73.9252 222.97 73.649 222.972 73.4763 223.071L69.4179 225.414C69.2453 225.513 69.2424 225.673 69.4114 225.771L73.6943 228.244C73.8633 228.341 74.1403 228.339 74.3129 228.24L78.3713 225.897C78.5432 225.798 78.5461 225.638 78.3778 225.541ZM86.6809 227.812L82.3981 225.34C82.2291 225.242 81.9528 225.243 81.7802 225.343L75.5365 228.948C75.3638 229.047 75.3617 229.208 75.5307 229.305L79.8136 231.777C79.9826 231.875 80.2588 231.873 80.4315 231.773L86.6752 228.169C86.8471 228.069 86.85 227.909 86.6809 227.812ZM71.8881 220.712L67.6052 218.24C67.4362 218.142 67.1599 218.144 66.9873 218.244L61.9923 221.128C61.8204 221.227 61.8168 221.387 61.9859 221.484L66.2687 223.957C66.4377 224.055 66.7147 224.053 66.8866 223.954L71.8816 221.07C72.0542 220.97 72.0571 220.81 71.8881 220.712ZM75.7177 218.502C75.8861 218.6 76.163 218.598 76.3356 218.498L80.3941 216.155C80.5667 216.056 80.5696 215.896 80.4005 215.798L76.1177 213.325C75.9486 213.227 75.6717 213.229 75.4991 213.329L71.4414 215.671C71.2687 215.771 71.2658 215.931 71.4349 216.028L75.7177 218.502ZM94.3605 230.443L90.0776 227.97C89.9086 227.873 89.6316 227.874 89.4597 227.974L81.655 232.48C81.4824 232.58 81.4802 232.74 81.6493 232.837L85.9321 235.31C86.1012 235.408 86.3774 235.405 86.55 235.306L94.3547 230.8C94.5266 230.7 94.5295 230.541 94.3605 230.443ZM97.6701 235.597L93.3865 233.125C93.2182 233.027 92.9412 233.029 92.7686 233.129L87.7736 236.012C87.601 236.112 87.5981 236.272 87.7671 236.369L92.05 238.842C92.219 238.94 92.496 238.938 92.6679 238.839L97.6629 235.955C97.8362 235.855 97.8384 235.695 97.6701 235.597ZM119.817 193.041C119.986 193.139 120.263 193.136 120.435 193.037L124.494 190.694C124.666 190.594 124.669 190.435 124.5 190.337L120.217 187.864C120.048 187.766 119.771 187.768 119.599 187.867L115.541 190.21C115.368 190.31 115.365 190.47 115.534 190.567L119.817 193.041ZM107.954 199.89C108.123 199.988 108.4 199.986 108.572 199.887L112.631 197.543C112.803 197.444 112.805 197.284 112.636 197.186L108.353 194.713C108.184 194.615 107.908 194.618 107.736 194.717L103.677 197.06C103.504 197.16 103.502 197.319 103.671 197.417L107.954 199.89ZM81.6486 215.077C81.8176 215.175 82.0945 215.174 82.2665 215.074L86.3249 212.731C86.4975 212.632 86.5004 212.471 86.3314 212.374L82.0485 209.901C81.8795 209.804 81.6032 209.805 81.4306 209.905L77.3722 212.247C77.2003 212.347 77.1967 212.507 77.3664 212.604L81.6486 215.077ZM113.886 196.466C114.055 196.563 114.332 196.562 114.504 196.462L118.562 194.119C118.735 194.02 118.737 193.859 118.568 193.762L114.285 191.289C114.116 191.192 113.84 191.193 113.667 191.293L109.609 193.636C109.436 193.735 109.433 193.895 109.602 193.992L113.886 196.466ZM102.023 203.314C102.192 203.411 102.469 203.41 102.641 203.311L106.7 200.968C106.872 200.868 106.875 200.708 106.706 200.611L102.423 198.139C102.254 198.042 101.977 198.042 101.805 198.142L97.747 200.485C97.5744 200.585 97.5722 200.745 97.7413 200.842L102.023 203.314ZM100.754 235.937C100.585 235.839 100.308 235.841 100.136 235.941L93.8922 239.545C93.7195 239.644 93.7174 239.804 93.8857 239.902L98.1685 242.374C98.3376 242.472 98.6138 242.471 98.7865 242.371L105.03 238.766C105.203 238.667 105.205 238.506 105.036 238.409L100.754 235.937ZM93.5109 208.229C93.68 208.326 93.9569 208.324 94.1288 208.225L98.1872 205.882C98.3599 205.782 98.362 205.622 98.1937 205.525L93.9109 203.052C93.7418 202.955 93.4649 202.957 93.2923 203.056L89.2338 205.399C89.0612 205.498 89.059 205.658 89.2274 205.756L93.5109 208.229ZM87.5794 211.653C87.7484 211.75 88.0254 211.749 88.1973 211.65L92.2557 209.306C92.4283 209.207 92.4312 209.046 92.2622 208.949L87.9793 206.476C87.8103 206.379 87.5333 206.381 87.3614 206.48L83.303 208.823C83.1304 208.923 83.1282 209.082 83.2973 209.18L87.5794 211.653ZM210.639 172.495C210.47 172.397 210.194 172.398 210.021 172.498L200.032 178.266C199.859 178.365 199.856 178.526 200.025 178.623L204.309 181.095C204.477 181.193 204.754 181.191 204.927 181.091L214.916 175.324C215.089 175.225 215.092 175.065 214.923 174.967L210.639 172.495ZM197.528 180.064C197.359 179.966 197.083 179.968 196.91 180.068L192.852 182.411C192.679 182.511 192.677 182.67 192.845 182.767L197.128 185.24C197.297 185.338 197.574 185.336 197.747 185.236L201.805 182.893C201.978 182.794 201.98 182.634 201.812 182.537L197.528 180.064ZM117.331 224.6L121.389 222.257C121.561 222.157 121.564 221.997 121.395 221.9L117.112 219.427C116.943 219.329 116.666 219.331 116.494 219.431L112.436 221.774C112.263 221.873 112.26 222.033 112.429 222.131L116.712 224.604C116.881 224.701 117.158 224.7 117.331 224.6ZM185.666 186.913C185.497 186.815 185.22 186.817 185.048 186.916L180.989 189.259C180.817 189.359 180.815 189.519 180.984 189.616L185.266 192.089C185.435 192.187 185.712 192.185 185.884 192.086L189.943 189.742C190.115 189.643 190.118 189.482 189.949 189.385L185.666 186.913ZM216.571 169.07C216.402 168.972 216.125 168.974 215.953 169.074L211.894 171.417C211.722 171.517 211.72 171.677 211.889 171.774L216.171 174.247C216.34 174.345 216.617 174.343 216.789 174.243L220.848 171.901C221.02 171.801 221.023 171.641 220.854 171.544L216.571 169.07ZM226.785 168.118L216.383 162.113C216.214 162.015 215.938 162.017 215.765 162.116L211.707 164.46C211.534 164.559 211.531 164.72 211.701 164.817L222.102 170.822C222.271 170.92 222.548 170.918 222.72 170.819L226.779 168.475C226.951 168.376 226.954 168.216 226.785 168.118ZM163.501 199.71C163.332 199.612 163.055 199.614 162.883 199.713L157.888 202.597C157.716 202.696 157.713 202.857 157.882 202.955L162.165 205.427C162.334 205.525 162.611 205.523 162.783 205.423L167.777 202.539C167.95 202.44 167.953 202.28 167.784 202.183L163.501 199.71ZM178.485 191.058C178.316 190.961 178.039 190.963 177.867 191.062L171.624 194.667C171.451 194.766 171.449 194.926 171.617 195.024L175.9 197.497C176.069 197.595 176.345 197.593 176.518 197.493L182.762 193.889C182.934 193.79 182.937 193.63 182.768 193.532L178.485 191.058ZM149.766 207.64C149.597 207.542 149.32 207.545 149.148 207.644L115.745 226.929C115.573 227.028 115.57 227.189 115.739 227.286L120.022 229.759C120.191 229.857 120.467 229.855 120.639 229.755L154.042 210.47C154.215 210.37 154.218 210.21 154.048 210.113L149.766 207.64ZM114.49 228.006C114.321 227.909 114.044 227.911 113.872 228.01L108.877 230.894C108.704 230.993 108.702 231.153 108.871 231.251L113.154 233.724C113.323 233.821 113.6 233.819 113.772 233.719L118.767 230.836C118.939 230.736 118.942 230.577 118.773 230.479L114.49 228.006ZM156.633 203.675C156.464 203.577 156.188 203.579 156.015 203.678L151.021 206.562C150.848 206.662 150.845 206.822 151.014 206.919L155.297 209.391C155.466 209.489 155.743 209.487 155.915 209.388L160.909 206.504C161.082 206.405 161.084 206.245 160.915 206.148L156.633 203.675ZM107.622 231.971C107.453 231.874 107.176 231.876 107.004 231.975L102.009 234.859C101.836 234.959 101.834 235.118 102.003 235.215L106.286 237.689C106.455 237.786 106.731 237.784 106.904 237.685L111.899 234.801C112.072 234.701 112.075 234.541 111.905 234.444L107.622 231.971ZM170.369 195.745C170.2 195.647 169.924 195.648 169.751 195.748L164.756 198.632C164.584 198.731 164.582 198.892 164.751 198.989L169.033 201.462C169.202 201.56 169.479 201.558 169.651 201.458L174.646 198.575C174.819 198.475 174.821 198.315 174.652 198.218L170.369 195.745ZM191.596 183.488C191.427 183.39 191.15 183.393 190.978 183.492L186.919 185.835C186.747 185.934 186.745 186.094 186.914 186.191L191.197 188.664C191.366 188.762 191.642 188.76 191.814 188.661L195.873 186.318C196.045 186.218 196.048 186.058 195.879 185.961L191.596 183.488ZM204.739 174.134L208.798 171.791C208.97 171.691 208.973 171.532 208.804 171.434L204.521 168.962C204.352 168.864 204.075 168.866 203.903 168.966L199.845 171.309C199.673 171.408 199.67 171.568 199.838 171.665L204.122 174.138C204.29 174.236 204.567 174.234 204.739 174.134ZM179.391 174.639L183.449 172.296C183.622 172.197 183.624 172.037 183.456 171.939L179.172 169.467C179.003 169.369 178.727 169.371 178.554 169.471L174.496 171.814C174.323 171.914 174.32 172.073 174.489 172.17L178.772 174.643C178.941 174.741 179.218 174.739 179.391 174.639ZM164.781 197.204L176.643 190.356C176.816 190.256 176.818 190.096 176.649 189.999L172.366 187.526C172.197 187.429 171.921 187.43 171.748 187.529L159.886 194.378C159.713 194.477 159.71 194.638 159.879 194.735L164.162 197.207C164.332 197.306 164.608 197.304 164.781 197.204ZM198.19 177.562C198.359 177.66 198.636 177.658 198.808 177.559L202.866 175.216C203.039 175.116 203.042 174.956 202.873 174.859L198.59 172.386C198.421 172.289 198.144 172.29 197.972 172.39L193.913 174.733C193.741 174.833 193.739 174.993 193.907 175.09L198.19 177.562ZM192.689 174.027L196.748 171.683C196.919 171.584 196.922 171.424 196.753 171.327L192.47 168.854C192.301 168.756 192.024 168.758 191.853 168.857L187.794 171.2C187.621 171.3 187.619 171.46 187.788 171.557L192.07 174.03C192.24 174.128 192.517 174.126 192.689 174.027ZM158.85 200.629L162.908 198.285C163.081 198.186 163.084 198.026 162.915 197.929L158.632 195.456C158.463 195.358 158.186 195.36 158.013 195.459L153.955 197.803C153.782 197.902 153.78 198.062 153.949 198.16L158.232 200.633C158.4 200.73 158.677 200.728 158.85 200.629ZM185.079 185.133C185.248 185.23 185.525 185.228 185.697 185.129L189.755 182.785C189.928 182.686 189.93 182.526 189.761 182.429L185.478 179.956C185.309 179.858 185.033 179.86 184.86 179.959L180.802 182.302C180.629 182.402 180.626 182.562 180.796 182.659L185.079 185.133ZM129.193 217.751L133.251 215.407C133.423 215.308 133.426 215.149 133.258 215.051L128.975 212.578C128.806 212.48 128.53 212.481 128.357 212.581L124.299 214.925C124.126 215.024 124.124 215.184 124.292 215.282L128.575 217.755C128.744 217.852 129.021 217.85 129.193 217.751ZM135.125 214.326L139.183 211.983C139.355 211.883 139.358 211.724 139.189 211.627L134.906 209.154C134.737 209.057 134.461 209.058 134.288 209.158L130.23 211.501C130.057 211.6 130.055 211.76 130.223 211.858L134.507 214.33C134.676 214.428 134.952 214.426 135.125 214.326ZM123.262 221.176L127.321 218.833C127.493 218.734 127.496 218.573 127.326 218.476L123.043 216.004C122.874 215.906 122.597 215.907 122.426 216.007L118.367 218.35C118.195 218.449 118.192 218.61 118.361 218.707L122.644 221.18C122.813 221.276 123.09 221.275 123.262 221.176ZM146.987 207.478L151.045 205.135C151.218 205.035 151.221 204.875 151.052 204.778L146.769 202.305C146.6 202.207 146.323 202.209 146.15 202.309L142.092 204.651C141.92 204.751 141.917 204.91 142.086 205.008L146.369 207.481C146.538 207.579 146.815 207.577 146.987 207.478ZM141.055 210.902L145.114 208.56C145.286 208.46 145.289 208.301 145.12 208.203L140.837 205.73C140.668 205.632 140.391 205.633 140.219 205.733L136.16 208.076C135.988 208.176 135.986 208.336 136.155 208.433L140.437 210.906C140.606 211.003 140.883 211.002 141.055 210.902ZM152.918 204.053L156.977 201.71C157.149 201.611 157.152 201.45 156.983 201.353L152.7 198.881C152.531 198.783 152.254 198.785 152.083 198.885L148.024 201.227C147.852 201.327 147.849 201.487 148.018 201.584L152.301 204.057C152.469 204.154 152.746 204.153 152.918 204.053ZM182.699 154.922C182.868 155.019 183.145 155.017 183.317 154.918L187.375 152.575C187.548 152.475 187.55 152.316 187.382 152.218L186.242 151.56C186.073 151.462 185.796 151.464 185.623 151.563L181.565 153.907C181.393 154.006 181.39 154.166 181.559 154.264L182.699 154.922ZM153.366 173.672C153.534 173.769 153.811 173.768 153.984 173.668L158.042 171.325C158.214 171.226 158.218 171.066 158.049 170.968L153.766 168.496C153.597 168.398 153.32 168.4 153.148 168.499L149.089 170.842C148.917 170.942 148.914 171.102 149.083 171.199L153.366 173.672ZM165.228 166.823C165.397 166.921 165.674 166.919 165.846 166.819L169.905 164.476C170.077 164.376 170.079 164.218 169.911 164.12L165.627 161.647C165.458 161.549 165.181 161.551 165.01 161.65L160.951 163.993C160.779 164.092 160.776 164.253 160.945 164.35L165.228 166.823ZM146.123 177.853C146.292 177.951 146.568 177.949 146.741 177.849L150.799 175.507C150.972 175.407 150.974 175.247 150.805 175.15L146.522 172.677C146.353 172.58 146.076 172.581 145.904 172.681L141.846 175.024C141.673 175.123 141.67 175.284 141.839 175.381L146.123 177.853ZM159.297 170.248C159.465 170.345 159.743 170.343 159.915 170.244L163.973 167.9C164.145 167.801 164.148 167.641 163.979 167.544L159.696 165.071C159.528 164.973 159.251 164.974 159.078 165.074L155.02 167.417C154.847 167.517 154.844 167.677 155.013 167.774L159.297 170.248ZM134.26 184.702C134.429 184.8 134.706 184.798 134.878 184.698L138.936 182.355C139.109 182.256 139.112 182.096 138.943 181.998L134.66 179.525C134.491 179.428 134.214 179.429 134.041 179.529L129.983 181.872C129.81 181.972 129.808 182.132 129.977 182.229L134.26 184.702ZM140.191 181.278C140.36 181.375 140.637 181.373 140.809 181.274L144.868 178.931C145.04 178.831 145.043 178.672 144.874 178.574L140.591 176.101C140.422 176.003 140.145 176.005 139.973 176.104L135.914 178.447C135.742 178.547 135.74 178.707 135.908 178.804L140.191 181.278ZM170.837 161.77C171.006 161.868 171.283 161.866 171.455 161.767L175.513 159.423C175.686 159.324 175.688 159.164 175.52 159.066L174.379 158.408C174.21 158.31 173.933 158.313 173.762 158.412L169.703 160.755C169.53 160.855 169.528 161.014 169.697 161.112L170.837 161.77ZM188.631 151.497C188.8 151.595 189.077 151.593 189.249 151.493L193.307 149.151C193.48 149.051 193.482 148.891 193.313 148.794L192.173 148.136C192.004 148.039 191.727 148.04 191.555 148.14L187.496 150.483C187.324 150.582 187.321 150.742 187.49 150.84L188.631 151.497ZM197.628 156.691C197.797 156.789 198.074 156.787 198.246 156.688L202.304 154.345C202.477 154.245 202.479 154.085 202.311 153.988L198.027 151.515C197.859 151.417 197.581 151.419 197.409 151.519L193.351 153.862C193.178 153.961 193.175 154.122 193.345 154.219L197.628 156.691ZM210.671 170.71L214.729 168.367C214.902 168.267 214.905 168.108 214.736 168.01L210.453 165.537C210.284 165.439 210.007 165.441 209.835 165.54L205.776 167.883C205.605 167.983 205.602 168.143 205.771 168.24L210.054 170.713C210.221 170.812 210.498 170.809 210.671 170.71ZM176.768 158.346C176.937 158.444 177.214 158.442 177.386 158.342L181.445 155.999C181.617 155.9 181.62 155.74 181.451 155.642L180.311 154.984C180.142 154.886 179.865 154.888 179.693 154.988L175.635 157.331C175.463 157.431 175.46 157.59 175.629 157.688L176.768 158.346ZM128.329 188.126C128.498 188.224 128.775 188.222 128.947 188.123L133.005 185.78C133.178 185.68 133.181 185.52 133.012 185.423L128.729 182.95C128.56 182.852 128.283 182.854 128.111 182.954L124.053 185.297C123.881 185.397 123.878 185.556 124.047 185.654L128.329 188.126Z" fill="#455A64"/>
<path d="M150.054 222.996L186.606 201.892C187.708 201.256 189.494 201.256 190.596 201.892L211.555 213.993C212.657 214.629 212.657 215.661 211.555 216.297L175.003 237.4C173.902 238.036 172.116 238.036 171.014 237.4L150.054 225.299C148.952 224.662 148.952 223.631 150.054 222.996Z" fill="#263238"/>
<path d="M143.868 62.998C132.441 73.2592 122.573 72.7211 116.403 67.9707C110.24 79.8475 100.372 91.7746 88.9444 94.7072L82.4201 112.329C82.4201 112.329 85.9168 116.358 85.9168 125.999C85.9168 130.344 85.2514 134.164 84.3012 137.957C83.1107 142.714 81.5778 147.636 81.5778 155.851C81.5778 161.425 82.3123 166.841 85.1313 171.769C86.7591 174.62 89.1091 177.033 92.2763 178.927C90.1673 177.711 83.9595 174.126 82.3568 173.201C78.9998 171.269 76.5296 168.786 74.8378 165.828C72.0187 160.894 71.2843 155.484 71.2843 149.91C71.2843 141.695 72.8172 136.773 74.0077 132.01C74.9579 128.222 75.629 124.402 75.629 120.058C75.629 110.417 72.1324 106.388 72.1324 106.388L78.6502 88.7663C90.0773 85.8337 99.9457 73.9066 106.109 62.0298C112.279 66.7802 122.147 67.319 133.574 57.0571L143.868 62.998Z" fill="#27DEBF"/>
<path opacity="0.8" d="M109.728 64.1172L106.11 62.0291C107.203 62.8707 108.414 63.5763 109.728 64.1172Z" fill="white"/>
<path opacity="0.85" d="M133.575 57.0562C124.173 65.4996 115.827 66.6275 109.728 64.117L116.403 67.9705C122.573 72.7209 132.441 73.2596 143.868 62.9978L133.575 57.0562Z" fill="white"/>
<path opacity="0.65" d="M106.11 62.0291C99.9472 73.9058 90.0788 85.8329 78.6516 88.7656L88.9444 94.7072C100.372 91.7745 110.24 79.8474 116.403 67.9707L106.11 62.0291Z" fill="white"/>
<path opacity="0.55" d="M78.6517 88.7655L72.1332 106.387L82.4202 112.328L88.9445 94.7071L78.6517 88.7655Z" fill="white"/>
<path opacity="0.4" d="M85.1314 171.769C82.3124 166.841 81.578 161.425 81.578 155.851C81.578 147.635 83.1108 142.714 84.3013 137.957C85.2515 134.163 85.9169 130.344 85.9169 125.998C85.9169 116.358 82.4203 112.329 82.4203 112.329L72.1332 106.387C72.1332 106.387 75.6299 110.416 75.6299 120.057C75.6299 124.402 74.958 128.222 74.0085 132.009C72.818 136.772 71.2852 141.694 71.2852 149.909C71.2852 155.483 72.0196 160.893 74.8386 165.827C76.5297 168.785 78.9999 171.268 82.3577 173.2C83.9604 174.125 90.1674 177.71 92.2772 178.926C89.1093 177.032 86.7592 174.619 85.1314 171.769Z" fill="white"/>
<path opacity="0.05" d="M85.1314 171.769C82.3124 166.841 81.578 161.425 81.578 155.851C81.578 147.635 83.1108 142.714 84.3013 137.957C85.2515 134.163 85.9169 130.344 85.9169 125.998C85.9169 116.358 82.4203 112.329 82.4203 112.329L72.1332 106.387C72.1332 106.387 75.6299 110.416 75.6299 120.057C75.6299 124.402 74.958 128.222 74.0085 132.009C72.818 136.772 71.2852 141.694 71.2852 149.909C71.2852 155.483 72.0196 160.893 74.8386 165.827C76.5297 168.785 78.9999 171.268 82.3577 173.2C83.9604 174.125 90.1674 177.71 92.2772 178.926C89.1093 177.032 86.7592 174.619 85.1314 171.769Z" fill="black"/>
<path d="M116.405 183.839C99.3379 184.028 89.5616 179.527 85.1298 171.768C82.3137 166.838 81.5792 161.424 81.5792 155.85C81.5792 147.635 83.1078 142.716 84.3004 137.954C85.2499 134.165 85.9196 130.343 85.9196 126.001C85.9196 116.36 82.423 112.331 82.423 112.331L88.9437 94.7065C100.37 91.7738 110.239 79.8446 116.405 67.9678C122.572 72.7233 132.44 73.2577 143.867 62.9966L150.388 73.0923C150.388 73.0923 146.891 81.1581 146.891 90.7984C146.891 95.1403 147.561 98.1895 148.51 100.883C149.703 104.266 151.231 107.422 151.231 115.636C151.231 121.209 150.497 127.472 147.681 135.653C143.249 148.53 133.472 164.32 116.405 183.839Z" fill="#27DEBF"/>
<path opacity="0.75" d="M116.405 183.839C99.3379 184.028 89.5616 179.527 85.1298 171.768C82.3137 166.838 81.5792 161.424 81.5792 155.85C81.5792 147.635 83.1078 142.716 84.3004 137.954C85.2499 134.165 85.9196 130.343 85.9196 126.001C85.9196 116.36 82.423 112.331 82.423 112.331L88.9437 94.7065C100.37 91.7738 110.239 79.8446 116.405 67.9678C122.572 72.7233 132.44 73.2577 143.867 62.9966L150.388 73.0923C150.388 73.0923 146.891 81.1581 146.891 90.7984C146.891 95.1403 147.561 98.1895 148.51 100.883C149.703 104.266 151.231 107.422 151.231 115.636C151.231 121.209 150.497 127.472 147.681 135.653C143.249 148.53 133.472 164.32 116.405 183.839Z" fill="white"/>
<path opacity="0.75" d="M114.384 179.404C101.164 179.247 92.6187 175.94 88.979 169.569C86.9274 165.976 86.0132 161.745 86.0132 155.85C86.0132 149.103 87.1195 144.804 88.1891 140.645C88.3287 140.102 88.4675 139.566 88.6013 139.031C89.8134 134.194 90.3536 130.176 90.3536 126C90.3536 118.976 88.6704 114.377 87.3346 111.833L92.3382 98.3081C104.569 94.0562 113.408 81.9809 118.091 74.0597C120.582 75.1229 123.277 75.6732 126.071 75.6732C131.597 75.6732 137.215 73.6166 142.82 69.5496L145.45 73.6202C144.309 76.9205 142.457 83.416 142.457 90.7984C142.457 95.1193 143.034 98.6836 144.327 102.356C144.465 102.747 144.607 103.133 144.75 103.524C145.803 106.398 146.797 109.113 146.797 115.636C146.797 121.833 145.776 127.562 143.488 134.21C139.127 146.885 129.337 162.083 114.384 179.404Z" fill="#27DEBF"/>
<path opacity="0.4" d="M114.384 179.404C101.164 179.247 92.6187 175.94 88.979 169.569C86.9274 165.976 86.0132 161.745 86.0132 155.85C86.0132 149.103 87.1195 144.804 88.1891 140.645C88.3287 140.102 88.4675 139.566 88.6013 139.031C89.8134 134.194 90.3536 130.176 90.3536 126C90.3536 118.976 88.6704 114.377 87.3346 111.833L92.3382 98.3081C104.569 94.0562 113.408 81.9809 118.091 74.0597C120.582 75.1229 123.277 75.6732 126.071 75.6732C131.597 75.6732 137.215 73.6166 142.82 69.5496L145.45 73.6202C144.309 76.9205 142.457 83.416 142.457 90.7984C142.457 95.1193 143.034 98.6836 144.327 102.356C144.465 102.747 144.607 103.133 144.75 103.524C145.803 106.398 146.797 109.113 146.797 115.636C146.797 121.833 145.776 127.562 143.488 134.21C139.127 146.885 129.337 162.083 114.384 179.404Z" fill="white"/>
<path opacity="0.15" d="M114.384 179.404C101.164 179.247 92.6187 175.94 88.979 169.569C86.9274 165.976 86.0132 161.745 86.0132 155.85C86.0132 149.103 87.1195 144.804 88.1891 140.645C88.3287 140.102 88.4675 139.566 88.6013 139.031C89.8134 134.194 90.3536 130.176 90.3536 126C90.3536 118.976 88.6704 114.377 87.3346 111.833L92.3382 98.3081C104.569 94.0562 113.408 81.9809 118.091 74.0597C120.582 75.1229 123.277 75.6732 126.071 75.6732C131.597 75.6732 137.215 73.6166 142.82 69.5496L145.45 73.6202C144.309 76.9205 142.457 83.416 142.457 90.7984C142.457 95.1193 143.034 98.6836 144.327 102.356C144.465 102.747 144.607 103.133 144.75 103.524C145.803 106.398 146.797 109.113 146.797 115.636C146.797 121.833 145.776 127.562 143.488 134.21C139.127 146.885 129.337 162.083 114.384 179.404Z" fill="black"/>
<path opacity="0.8" d="M92.0073 173.234C96.5103 177.205 103.997 179.281 114.384 179.404L107.755 175.629C101.825 175.593 96.5484 174.826 92.0073 173.234Z" fill="white"/>
<path opacity="0.15" d="M141.998 71.6291L145.45 73.6209L142.82 69.5496L141.323 70.5832L141.998 71.6291Z" fill="black"/>
<path d="M140.875 100.365C139.582 96.693 139.005 93.1281 139.005 88.8078C139.005 81.4254 140.858 74.9292 141.998 71.6296L141.323 70.5837C136.216 73.9617 131.106 75.6744 126.072 75.6744C123.278 75.6744 120.583 75.1248 118.092 74.0609C113.409 81.9821 104.57 94.0574 92.339 98.3093L87.3354 111.834C88.6712 114.378 90.3544 118.978 90.3544 126.001C90.3544 130.177 89.8135 134.196 88.6022 139.032C88.4684 139.567 88.3303 140.103 88.19 140.647C87.1204 144.805 86.014 149.104 86.014 155.851C86.014 161.746 86.929 165.978 88.9798 169.57C90.0149 171.382 91.4608 172.937 93.2835 174.251C97.7016 176.265 103.594 177.326 110.933 177.413C125.886 160.093 135.675 144.893 140.037 132.22C142.325 125.571 143.346 119.843 143.346 113.646C143.346 107.123 142.351 104.408 141.298 101.534C141.155 101.142 141.014 100.756 140.875 100.365Z" fill="#455A64"/>
<path d="M92.339 98.3088L87.3354 111.834C88.6712 114.378 90.3544 118.978 90.3544 126.001C90.3544 130.176 89.8135 134.195 88.6022 139.032C88.4684 139.566 88.3303 140.103 88.19 140.646C87.1204 144.804 86.014 149.104 86.014 155.85C86.014 161.746 86.929 165.977 88.9798 169.569C90.0149 171.381 91.4608 172.936 93.2835 174.251C97.7016 176.265 103.594 177.326 110.933 177.413V127.577L118.092 125.412V74.0604C116.091 77.4751 113.736 80.8904 110.933 84.305C106.146 90.0762 99.8898 95.684 92.339 98.3088Z" fill="#37474F"/>
<path d="M128.212 109.16C128.144 109.026 128.051 108.896 127.941 108.768C127.929 108.755 127.92 108.74 127.907 108.727C127.717 108.517 127.469 108.32 127.164 108.145L124.765 106.759C124.358 106.525 123.888 106.349 123.386 106.231C123.102 106.164 122.807 106.121 122.508 106.093V98.9971C122.508 95.44 121.164 92.6239 118.819 91.2701C116.582 89.9782 113.816 90.1537 111.028 91.7629C105.909 94.7186 101.898 101.931 101.898 108.183V116.559L97.1268 119.314C96.9758 119.401 96.8442 119.495 96.7211 119.591C96.678 119.624 96.632 119.658 96.5924 119.692C96.5823 119.701 96.5744 119.711 96.5636 119.719C96.1255 120.114 95.9054 120.566 95.9061 121.018V149.738C95.9054 149.862 95.9263 149.986 95.9587 150.109C96.068 150.527 96.3672 150.931 96.8593 151.273C96.9427 151.331 97.0305 151.388 97.1254 151.443L98.2921 152.117L99.5265 152.831C99.9739 153.09 100.504 153.269 101.067 153.384C102.536 153.688 104.239 153.507 105.416 152.828L127.162 140.273C127.976 139.803 128.382 139.187 128.382 138.571V109.846C128.384 109.615 128.327 109.384 128.212 109.16ZM106.599 108.183C106.599 103.611 109.703 97.9555 113.379 95.8335C114.632 95.1099 115.758 94.9308 116.47 95.3408C117.308 95.8249 117.809 97.1916 117.809 98.9971V107.374L111.625 110.944L106.6 113.845V108.183H106.599Z" fill="#263238"/>
<path d="M130.918 111.112C130.918 110.496 130.511 109.88 129.698 109.411L127.299 108.025C125.672 107.086 123.033 107.086 121.406 108.025L99.6602 120.58C98.8459 121.051 98.4395 121.667 98.4402 122.284V151.004C98.438 151.621 98.8445 152.238 99.6602 152.71L102.058 154.094C103.685 155.034 106.323 155.034 107.951 154.094L129.698 141.539C130.511 141.07 130.918 140.454 130.918 139.838V111.112Z" fill="#27DEBF"/>
<path opacity="0.4" d="M102.059 125.368L99.6609 123.983C98.0338 123.044 98.0338 121.521 99.6609 120.581L121.406 108.026C123.033 107.087 125.672 107.087 127.299 108.026L129.698 109.411C131.325 110.351 131.325 111.874 129.698 112.813L107.951 125.368C106.324 126.308 103.685 126.308 102.059 125.368Z" fill="white"/>
<path opacity="0.1" d="M105.008 126.072V154.799C103.94 154.799 102.872 154.567 102.062 154.098L99.6602 152.71C98.8437 152.241 98.4352 151.621 98.4424 151.003V122.282C98.4424 122.902 98.8437 123.514 99.6602 123.983L102.062 125.372C102.871 125.84 103.94 126.072 105.008 126.072Z" fill="black"/>
<path d="M120.833 140.281L115.641 143.279L116.445 133.887C115.824 133.559 115.428 132.75 115.428 131.59C115.428 129.522 116.685 127.119 118.237 126.224C119.787 125.328 121.045 126.279 121.045 128.347C121.045 129.507 120.649 130.772 120.028 131.818L120.833 140.281Z" fill="#455A64"/>
<path d="M120.833 140.281L116.13 137.566L115.641 143.279L120.833 140.281Z" fill="#37474F"/>
<path d="M118.237 126.223C117.222 126.809 116.336 128.04 115.843 129.401L120.029 131.818V131.817C120.65 130.772 121.046 129.506 121.046 128.346C121.046 126.278 119.788 125.328 118.237 126.223Z" fill="#37474F"/>
<path d="M125.041 111.753C125.041 111.751 125.042 111.751 125.042 111.749L125.041 100.265C125.041 96.7075 123.697 93.8914 121.353 92.5376C119.116 91.2457 116.35 91.4212 113.562 93.0303C108.443 95.986 104.433 103.199 104.433 109.45V120.998C104.433 121.344 104.664 121.692 105.122 121.956C106.039 122.486 107.526 122.486 108.443 121.956C108.901 121.692 109.133 121.345 109.133 120.998V109.45C109.133 104.878 112.238 99.2223 115.913 97.1003C117.166 96.3766 118.292 96.1975 119.004 96.6075C119.842 97.0916 120.343 98.4583 120.343 100.264V111.749C120.343 111.749 120.343 111.749 120.343 111.75V111.756H120.344C120.347 112.101 120.577 112.444 121.032 112.707C121.949 113.236 123.436 113.236 124.353 112.707C124.808 112.444 125.039 112.1 125.042 111.756H125.043V111.753H125.041Z" fill="#E0E0E0"/>
<path d="M152.993 162.239L156.158 160.412L157.412 158.892L154.247 160.72L152.993 162.239Z" fill="#27DEBF"/>
<path opacity="0.4" d="M152.993 162.239L156.158 160.412L157.412 158.892L154.247 160.72L152.993 162.239Z" fill="black"/>
<path d="M161.607 167.212L164.772 165.384L167.417 163.043L164.252 164.871L161.607 167.212Z" fill="#27DEBF"/>
<path opacity="0.4" d="M161.607 167.212L164.772 165.384L167.417 163.043L164.252 164.871L161.607 167.212Z" fill="black"/>
<path d="M188.518 173.526C189.212 174.409 189.718 175.706 189.827 176.971C189.133 176.088 188.627 174.791 188.518 173.526ZM195.876 173.622C194.812 166.371 190.916 159.197 186.272 156.516C184.043 155.228 181.981 155.181 180.33 156.147C179.846 156.428 178.054 157.462 177.348 157.867C177.291 157.898 177.234 157.929 177.182 157.965C177.052 158.038 176.922 158.121 176.797 158.209C176.558 158.375 176.329 158.562 176.111 158.775C176.08 158.801 176.049 158.838 176.013 158.869C175.919 158.962 175.826 159.066 175.737 159.17C175.628 159.295 175.519 159.425 175.42 159.559C175.212 159.835 175.015 160.13 174.838 160.453C174.75 160.609 174.661 160.775 174.579 160.946L148.549 145.919L145.385 147.742V149.758L145.655 149.914L145.905 150.059V150.485L145.385 150.786V151.96L149.209 160.053L152.99 162.24L154.247 160.718L157.582 162.713L159.499 165.996L161.608 167.211L164.252 164.869L167.498 166.744L168.589 171.242L174.028 174.38C174.304 175.533 174.652 176.66 175.057 177.762C175.094 177.876 175.135 177.99 175.181 178.115C176.989 182.868 179.867 186.935 183.108 188.81C183.524 189.049 183.929 189.246 184.329 189.397C184.558 189.49 184.786 189.563 185.009 189.626C185.212 189.682 185.414 189.729 185.617 189.761C186.287 189.88 186.937 189.875 187.544 189.756C187.633 189.735 187.721 189.714 187.809 189.693C187.933 189.667 188.058 189.631 188.178 189.584C188.272 189.547 188.365 189.511 188.459 189.474C188.557 189.438 188.656 189.391 188.749 189.339C188.843 189.298 188.931 189.251 189.02 189.199C189.066 189.173 189.113 189.147 189.155 189.121C189.176 189.116 189.197 189.1 189.217 189.085C189.94 188.669 191.721 187.64 192.204 187.365C194.609 185.973 196.168 182.446 196.168 177.46C196.168 176.193 196.069 174.905 195.876 173.622Z" fill="#27DEBF"/>
<path d="M187.59 179.643C186.341 178.922 185.329 176.779 185.329 174.856C185.329 172.934 186.341 171.96 187.59 172.68C188.838 173.401 189.85 175.544 189.85 177.467C189.851 179.39 188.838 180.364 187.59 179.643ZM192.713 175.445C191.648 168.198 187.752 161.025 183.108 158.345C180.957 157.103 178.969 157.01 177.348 157.867C177.291 157.898 177.234 157.93 177.182 157.966C177.052 158.039 176.922 158.122 176.797 158.21C176.558 158.376 176.329 158.563 176.111 158.776C176.08 158.802 176.049 158.838 176.013 158.869C175.919 158.963 175.826 159.067 175.737 159.171C175.628 159.295 175.519 159.425 175.42 159.56C175.212 159.835 175.015 160.131 174.838 160.453C174.75 160.609 174.661 160.776 174.579 160.947C174.148 161.83 173.805 162.858 173.576 164.022L145.385 147.743V149.758L145.655 149.915L145.905 150.06V150.486L145.385 150.787V151.961L149.209 160.054L152.99 162.241L154.247 160.719L157.582 162.713L159.499 165.996L161.608 167.212L164.252 164.869L167.498 166.745L168.589 171.243L174.028 174.381C174.304 175.534 174.652 176.661 175.057 177.762C175.094 177.877 175.135 177.991 175.181 178.116C176.989 182.869 179.867 186.936 183.108 188.811C183.524 189.049 183.929 189.247 184.329 189.398C184.558 189.491 184.786 189.564 185.009 189.626C185.212 189.683 185.414 189.73 185.617 189.761C186.287 189.881 186.937 189.876 187.544 189.756C187.633 189.736 187.721 189.715 187.809 189.694C187.933 189.668 188.058 189.631 188.178 189.585C188.272 189.548 188.365 189.512 188.459 189.475C188.557 189.439 188.656 189.392 188.749 189.34C188.843 189.298 188.931 189.252 189.02 189.2C189.066 189.174 189.113 189.148 189.155 189.122C189.176 189.117 189.197 189.101 189.217 189.085C191.524 187.631 193.004 184.156 193.004 179.289C193.004 178.021 192.9 176.733 192.713 175.445Z" fill="#27DEBF"/>
<path opacity="0.4" d="M189.851 177.466C189.851 179.388 188.838 180.364 187.592 179.643C186.34 178.921 185.327 176.781 185.327 174.859C185.327 172.936 186.34 171.96 187.592 172.682C187.924 172.874 188.241 173.165 188.516 173.528C188.625 174.791 189.134 176.089 189.825 176.973C189.845 177.138 189.851 177.305 189.851 177.466Z" fill="black"/>
<path opacity="0.4" d="M196.168 177.46C196.168 182.447 194.61 185.974 192.204 187.366C191.721 187.642 189.939 188.67 189.217 189.085C191.524 187.631 193.004 184.156 193.004 179.289C193.004 178.021 192.9 176.733 192.713 175.445C191.649 168.198 187.753 161.025 183.109 158.345C180.958 157.104 178.969 157.01 177.349 157.867C178.055 157.463 179.847 156.429 180.33 156.148C181.982 155.182 184.044 155.229 186.273 156.517C190.917 159.198 194.812 166.371 195.877 173.623C196.069 174.905 196.168 176.193 196.168 177.46Z" fill="white"/>
<path d="M193.004 179.289C193.004 184.156 191.524 187.631 189.218 189.085C189.94 188.669 191.722 187.641 192.204 187.366C194.609 185.974 196.168 182.447 196.168 177.46C196.168 177.276 196.161 177.091 196.157 176.906C195.07 177.534 193.971 178.168 192.993 178.733C192.997 178.918 193.004 179.104 193.004 179.289Z" fill="#27DEBF"/>
<path opacity="0.1" d="M193.004 179.289C193.004 184.156 191.524 187.631 189.218 189.085C189.94 188.669 191.722 187.641 192.204 187.366C194.609 185.974 196.168 182.447 196.168 177.46C196.168 177.276 196.161 177.091 196.157 176.906C195.07 177.534 193.971 178.168 192.993 178.733C192.997 178.918 193.004 179.104 193.004 179.289Z" fill="black"/>
<path opacity="0.15" d="M173.691 166.1V167.129L145.387 150.787L145.906 150.486V150.06L173.691 166.1Z" fill="black"/>
<path opacity="0.15" d="M173.691 166.527V167.129L145.387 150.787L145.906 150.486V150.481L173.691 166.527Z" fill="black"/>
<path opacity="0.15" d="M174.869 168.818C174.869 175.823 178.558 183.633 183.108 186.26C187.659 188.887 191.347 185.338 191.347 178.331C191.347 171.325 187.659 163.516 183.108 160.889C178.558 158.262 174.869 161.811 174.869 168.818Z" stroke="black" stroke-width="0.7315" stroke-miterlimit="10"/>
<path opacity="0.5" d="M174.579 160.947C174.148 161.831 173.805 162.859 173.576 164.023L145.386 147.744L148.55 145.92L174.579 160.947Z" fill="white"/>
<path d="M282.032 240.526C282.141 241.51 282.276 244.272 287.282 244.961C292.289 245.649 295.443 243.993 296.778 241.584C298.112 239.175 297.806 237.212 298.02 234.981C298.234 232.75 300.077 231.563 300.607 230.414C301.387 228.722 300.246 226.088 300.246 226.088L282.032 240.526Z" fill="#263238"/>
<path d="M245.498 232.682C245.317 232.826 245.265 234.403 245.824 235.104C246.209 235.586 249.687 237.918 253.847 237.25C258.006 236.582 260.005 235.418 262.34 233.921C264.729 232.389 266.408 232.118 268.895 232.033C271.302 231.95 273.065 231.415 273.247 230.783C273.567 229.673 273.567 228.97 273.039 229.006L245.498 232.682Z" fill="#263238"/>
<path d="M299.08 222.214C298.453 226.778 289.601 226.41 290.322 222.765L288.743 211.681L298.763 211.992L299.08 222.214Z" fill="#FFA8A7"/>
<path d="M282.394 238.25C282.837 237.428 284.128 236.243 284.697 235.502C287.666 231.629 289.536 227.122 289.903 222.222C289.923 221.953 289.957 221.432 290.224 221.271C290.507 221.101 290.764 221.335 291.051 221.461C291.057 221.456 291.061 221.452 291.066 221.448C291.066 221.448 291.069 221.462 291.069 221.469C291.428 221.624 291.923 221.797 292.619 221.875C294.393 222.073 296.355 221.648 296.798 221.709C297.142 221.756 297.248 222.822 297.22 223.976C297.851 223.577 298.057 222.786 298.624 222.324C298.93 222.076 299.065 222.068 299.059 221.657C299.054 221.389 299.037 221.149 299.034 220.882C299.489 220.748 299.872 222.494 300.246 223.826C300.679 225.368 301.219 227.109 300.611 228.675C300.272 229.547 299.713 230.312 299.199 231.094C298.314 232.441 297.536 233.919 297.381 235.523C297.314 236.227 297.368 236.94 297.268 237.639C296.919 240.075 295.248 241.991 292.899 242.724C289.846 243.678 285.262 243.529 282.572 241.394C281.63 240.645 281.951 239.073 282.394 238.25Z" fill="#37474F"/>
<path d="M270.997 221.448C268.572 223.332 265.645 224.444 262.661 223.083L261.963 204.428L272.011 206.234L270.997 221.448Z" fill="#FFA8A7"/>
<path d="M247.521 229.462C248.187 229.25 248.845 229.013 249.495 228.754C251.312 228.031 253.064 227.145 254.74 226.137C255.48 225.692 256.205 225.223 256.913 224.728C257.657 224.209 258.344 223.632 259.049 223.061C259.423 222.759 259.766 222.34 260.069 221.968C260.673 221.227 261.181 220.405 261.574 219.534C261.662 219.34 261.758 219.128 261.95 219.036C262.178 218.929 262.45 219.036 262.657 219.18C262.839 219.308 263.001 219.466 263.208 219.555C263.402 219.639 263.603 219.716 263.799 219.798C264.428 220.059 265.094 220.222 265.771 220.282C268.313 220.51 268.395 219.999 268.506 220.819C268.532 221.019 268.542 221.348 268.526 221.738C269.867 221.516 270.925 221.082 270.984 220.574L271.146 218.947C272.483 218.826 272.573 221.22 273.012 223.908C273.367 226.083 273.889 227.659 273.291 229.259C271.268 231.025 267.702 230.597 265.669 230.933C262.795 231.407 261.45 233.534 257.454 234.918C251.012 237.147 246.943 234.576 245.735 233.455C244.936 232.027 244.776 230.337 247.521 229.462Z" fill="#37474F"/>
<path d="M296.254 111.147C296.763 119.049 297.691 130.651 298.014 139.791C298.622 156.973 298.385 176.554 298.385 176.554C298.385 176.554 300.054 182.697 300.236 187.565C300.646 198.539 300.568 223.185 300.568 223.185C300.568 223.185 296.021 227.768 289.21 224.167C289.21 224.167 283.179 189.615 281.492 178.791C279.882 168.472 276.739 147.833 276.739 147.833L275.317 177.127C275.317 177.127 276.982 183.093 276.388 191.187C276.019 196.214 273.149 221.045 273.149 221.045C270.533 223.499 262.905 222.165 261.239 220.213C261.239 220.213 258.567 183.521 258.271 178.221C257.63 166.756 255.925 124.025 256.778 117.389C257.629 110.752 296.254 111.147 296.254 111.147Z" fill="#263238"/>
<path d="M276.739 147.833L274.743 134.613C274.743 134.613 269.249 133.573 265.241 130.598C265.241 130.598 266.802 134.13 272.871 136.649L274.844 148.961L275.317 177.126L276.739 147.833Z" fill="black"/>
<path d="M287.952 58.095C288.318 59.5847 290.851 59.3567 291.952 59.0776C293.314 58.7324 294.323 57.5203 294.156 56.1133C294.728 55.9392 295.257 55.6486 295.627 55.2127C296.245 54.484 296.146 53.5475 295.73 52.7584C296.63 52.0793 297.186 50.968 296.983 49.848C296.838 49.0488 296.366 48.2978 295.746 47.8245C295.22 47.4224 294.242 46.9398 293.54 47.039C293.28 47.0757 293.023 47.5613 293.398 47.6001C293.891 47.6504 294.621 48 295.003 48.2957C295.424 48.6201 295.915 49.1071 296.094 49.6761C296.391 50.6213 296.047 51.5585 295.32 52.1477C295.182 51.9822 295.036 51.8261 294.878 51.6959C294.361 51.2694 293.734 50.9946 293.055 51.0521C292.585 51.0917 292.006 51.2981 291.852 51.7959C291.677 52.3591 292.26 52.8353 292.691 53.0806C293.332 53.446 294.077 53.4964 294.774 53.2684C294.829 53.2504 294.882 53.2202 294.936 53.1986C294.974 53.2756 295.012 53.3525 295.04 53.4273C295.428 54.4617 294.805 55.1005 293.957 55.3861C293.452 54.333 292.069 53.5626 290.961 54.1143C290.325 54.4308 290.252 55.1185 290.705 55.6364C291.118 56.1083 291.805 56.2773 292.406 56.3133C292.683 56.3298 292.979 56.3233 293.277 56.291C293.337 56.7485 293.24 57.2275 292.972 57.6131C292.506 58.2835 291.646 58.4417 290.884 58.4986C289.894 58.5719 289.197 58.295 288.413 57.7145C288.195 57.5534 287.898 57.8742 287.952 58.095ZM294.52 52.5699C294.043 52.7015 293.559 52.6318 293.13 52.344C292.828 52.1419 292.496 51.847 293.031 51.8074C293.593 51.7664 294.128 52.116 294.52 52.5699ZM293.019 55.5551C292.698 55.5688 292.383 55.5429 292.109 55.4731C291.896 55.4191 290.954 54.9422 291.434 54.7286C291.804 54.5639 292.447 54.93 292.708 55.1659C292.834 55.2796 292.933 55.4134 293.019 55.5551Z" fill="#263238"/>
<path d="M289.702 30.2729C289.702 30.2729 289.883 30.2981 290.168 30.37C289.971 29.3665 290.411 28.358 291.317 27.9437C292.407 27.4452 293.745 27.9933 294.305 29.1687L291.049 30.6577C291.915 31.0044 292.976 31.6389 293.527 32.7725C294.42 34.6075 293.243 38.517 292.053 43.3451C290.863 48.1732 290.217 50.2593 289.427 52.2899C288.881 53.6955 287.898 53.7394 287.898 53.7394V48.9228L288.105 44.9305C288.105 44.9305 285.542 41.431 285.261 38.5631C284.898 34.8722 285.676 33.3616 285.676 33.3616L289.702 30.2729Z" fill="#263238"/>
<path d="M271.988 26.1332C276.473 26.1476 280.099 29.796 280.084 34.2824C280.069 38.7689 276.421 42.3935 271.935 42.3784C267.448 42.364 263.823 38.7156 263.838 34.2292C263.854 29.7428 267.502 26.1181 271.988 26.1332Z" fill="#263238"/>
<path d="M287.955 44.2942C288.918 45.1293 289.702 42.9685 290.512 42.1254C291.322 41.2831 293.962 40.1372 295.268 42.9123C296.599 45.7407 294.059 49.5826 292.086 50.4976C289.195 51.8384 287.899 48.9237 287.899 48.9237V60.9746C284.854 66.4594 278.27 65.1769 275.157 65.9451C274.591 63.7217 274.815 62.8801 275.139 61.6479L275.162 57.7218C275.162 57.7218 272.765 58.1843 271.184 57.9347C268.555 57.5197 267.146 55.3538 266.357 52.5038C265.09 47.9268 264.828 40.2415 266.588 31.3543C269.533 29.0769 279.497 29.4459 285.676 33.3633C285.224 41.2442 286.993 43.459 287.955 44.2942Z" fill="#FFA8A7"/>
<path d="M275.162 57.7201C275.162 57.7201 281.037 56.5563 283.093 55.4722C284.469 54.7464 285.605 53.484 285.94 52.6741C285.94 52.6741 285.55 54.4148 284.318 55.9801C282.81 57.8942 275.157 59.2825 275.157 59.2825L275.162 57.7201Z" fill="#F28F8F"/>
<path d="M262.562 39.5364C262.588 40.0759 262.924 40.5888 263.101 40.801C263.19 40.9161 263.269 41.0664 263.313 41.252C263.508 42.1102 263.649 43.7373 264.039 44.6479C264.428 45.568 265.25 47.0275 267.629 47.1246C268.098 47.1512 268.505 47.1159 268.868 47.0447C268.903 47.0447 268.939 47.0361 268.965 47.0267C269.354 46.9469 269.69 46.8145 269.982 46.6556C270 46.6376 270.026 46.629 270.044 46.6203C270.071 46.6023 270.097 46.5851 270.133 46.5671C270.151 46.5491 270.177 46.5319 270.238 46.4873C270.274 46.4693 270.309 46.4427 270.335 46.4168C270.379 46.3901 270.415 46.3635 270.451 46.3283C270.486 46.3017 270.521 46.2751 270.556 46.2398C270.627 46.1779 270.689 46.1161 270.76 46.0449C271.114 45.6737 271.379 45.2227 271.591 44.7709C272.14 43.6035 272.034 41.9411 272.901 41.7728C272.936 41.7642 272.971 41.7642 273.006 41.7548H273.121C274.298 41.7994 274.129 43.5948 274.757 44.8947C275.385 46.1952 276.455 47.477 279.003 47.5569C279.118 47.5655 279.223 47.5655 279.33 47.5655C279.418 47.5655 279.507 47.5569 279.595 47.5475C279.816 47.5389 280.02 47.5123 280.205 47.477C280.277 47.4591 280.338 47.4504 280.4 47.4332C280.462 47.4245 280.524 47.4065 280.586 47.3886C280.63 47.3799 280.666 47.3619 280.701 47.3533C280.966 47.2648 281.197 47.1584 281.399 47.044C281.479 46.9908 281.558 46.9469 281.638 46.8937C281.78 46.7872 281.912 46.6728 282.036 46.5491C282.434 46.16 282.673 45.7262 282.832 45.3637C283.248 44.4789 283.389 42.8698 283.601 42.0296C283.654 41.8088 283.725 41.6491 283.805 41.5433C283.973 41.3045 284.371 40.8888 284.398 40.3493C284.424 39.8011 284.052 39.3235 283.708 39.2703C283.513 39.235 283.301 39.2084 283.088 39.1732C281.081 38.8905 278.462 38.7308 276.889 39.1286C274.907 39.6242 274.209 40.2428 273.112 40.2076C272.095 40.163 271.44 39.4911 269.583 38.8452C268.106 38.3323 265.656 38.3057 263.781 38.4387C263.577 38.4474 263.392 38.4654 263.197 38.4833C262.88 38.5193 262.535 38.9969 262.562 39.5364ZM275.475 41.0226C275.581 40.8722 275.784 40.7219 276.041 40.5802C276.076 40.5536 276.112 40.5449 276.148 40.5269C276.166 40.509 276.183 40.5003 276.201 40.4917C276.289 40.4564 276.386 40.4118 276.484 40.368C276.563 40.3327 276.651 40.3061 276.74 40.2709C277.006 40.1738 277.289 40.0939 277.589 40.0234C277.696 39.9968 277.81 39.9702 277.925 39.9529C278.208 39.8997 278.5 39.8558 278.792 39.8292C278.862 39.8292 278.924 39.8206 278.995 39.8206C280.888 39.7055 282.065 40.1745 282.48 40.5723C282.922 40.9794 282.683 42.7302 282.488 43.615C282.48 43.633 282.48 43.6596 282.47 43.6769C282.47 43.7035 282.462 43.7215 282.452 43.7474C282.434 43.8538 282.399 43.9775 282.364 44.1013C282.346 44.1717 282.329 44.2516 282.302 44.3221C282.302 44.3307 282.302 44.3307 282.302 44.3307C282.258 44.4544 282.214 44.5782 282.16 44.7019C282.152 44.7465 282.125 44.7904 282.107 44.8256C282.099 44.8522 282.089 44.8788 282.072 44.9055C282.063 44.9321 282.045 44.9587 282.037 44.9853C282.019 45.0205 282.001 45.0558 281.983 45.0918C281.957 45.1364 281.939 45.1716 281.913 45.2069C281.886 45.2515 281.869 45.2953 281.833 45.3306C281.807 45.3745 281.78 45.4191 281.753 45.4543C281.267 46.1269 280.462 46.6836 279.082 46.657C277.711 46.6218 276.853 46.1355 276.305 45.5334C275.757 44.9321 275.527 44.2156 275.421 43.72C275.21 42.7209 275.095 41.5534 275.475 41.0226ZM264.357 39.8817C264.464 39.7846 264.613 39.6781 264.826 39.5983C264.835 39.5897 264.844 39.5803 264.861 39.5803C264.923 39.5537 264.994 39.5271 265.065 39.5005C265.11 39.4918 265.153 39.4738 265.189 39.4652C265.224 39.4566 265.26 39.4472 265.295 39.4386C265.322 39.43 265.348 39.43 265.366 39.4206C265.375 39.4206 265.384 39.412 265.393 39.412C265.428 39.4034 265.464 39.4034 265.499 39.394C265.632 39.3674 265.783 39.3408 265.933 39.3321C266.013 39.3235 266.092 39.3142 266.172 39.3142C266.217 39.3055 266.269 39.3055 266.314 39.3055C266.349 39.3055 266.394 39.3055 266.429 39.2969C266.526 39.2969 266.623 39.2969 266.729 39.3055H266.836C266.871 39.3055 266.906 39.3142 266.942 39.3142C267.216 39.3321 267.508 39.3588 267.818 39.4113C269.162 39.6321 270.56 40.2867 270.913 40.8528C271.276 41.4103 271.169 42.5597 270.975 43.5503C270.931 43.7452 270.878 43.966 270.789 44.2048C270.781 44.2228 270.771 44.2401 270.771 44.2581C270.763 44.2847 270.753 44.3027 270.745 44.3286C270.736 44.3372 270.736 44.3552 270.727 44.3724C270.718 44.3991 270.7 44.4257 270.692 44.4523C270.665 44.5055 270.638 44.558 270.612 44.6113C270.594 44.6559 270.567 44.6997 270.54 44.753C270.532 44.7616 270.522 44.7796 270.514 44.7976C270.496 44.8242 270.479 44.8594 270.452 44.8947C270.443 44.9126 270.425 44.9393 270.399 44.9745V44.9831C269.913 45.691 269.063 46.3009 267.56 46.2125C266.994 46.1859 266.524 46.0441 266.145 45.8413C264.818 45.1342 264.508 43.6215 264.358 42.923C264.172 42.0217 263.951 40.2529 264.357 39.8817Z" fill="#263238"/>
<path d="M283.576 39.3011L292.176 41.2354C292.176 41.2354 291.138 41.4131 290.196 42.5122L283.57 41.2563L283.576 39.3011Z" fill="#263238"/>
<path d="M264.357 42.9244C264.508 43.6229 264.817 45.1356 266.144 45.8427C266.525 46.0463 266.993 46.188 267.559 46.2139C269.062 46.3024 269.912 45.6924 270.398 44.9846V44.976C270.425 44.9407 270.442 44.9141 270.451 44.8961C270.478 44.8609 270.495 44.8256 270.513 44.799C270.522 44.781 270.531 44.7638 270.54 44.7544C270.566 44.7012 270.593 44.6573 270.611 44.6127C270.638 44.5595 270.664 44.507 270.691 44.4537C270.699 44.4271 270.717 44.4005 270.726 44.3739C270.735 44.3559 270.735 44.3386 270.744 44.33C270.753 44.3034 270.762 44.2854 270.771 44.2595C270.771 44.2423 270.779 44.2243 270.789 44.2063C270.877 43.9675 270.93 43.7466 270.974 43.5517C271.168 42.5612 271.275 41.411 270.912 40.8542C270.558 40.2881 269.161 39.6335 267.817 39.4127C267.508 39.3595 267.216 39.3329 266.941 39.3156C266.906 39.3156 266.871 39.307 266.835 39.307H266.729C266.623 39.2983 266.525 39.2983 266.428 39.2983C266.393 39.307 266.348 39.307 266.313 39.307C266.269 39.307 266.216 39.307 266.171 39.3156C266.091 39.3156 266.012 39.3242 265.933 39.3336C265.782 39.3422 265.632 39.3688 265.499 39.3955C265.464 39.4041 265.428 39.4041 265.392 39.4134C265.384 39.4134 265.374 39.4221 265.366 39.4221C265.348 39.4307 265.322 39.4307 265.294 39.44C265.259 39.4487 265.224 39.458 265.188 39.4667C265.153 39.4753 265.109 39.4933 265.064 39.5019C264.994 39.5285 264.923 39.5551 264.861 39.5818C264.843 39.5818 264.834 39.5904 264.825 39.5997C264.613 39.6796 264.463 39.7853 264.356 39.8832C263.951 40.2529 264.172 42.0217 264.357 42.9244Z" fill="#37474F"/>
<path d="M275.422 43.72C275.528 44.2149 275.758 44.9321 276.306 45.5334C276.854 46.1348 277.712 46.621 279.083 46.657C280.463 46.6836 281.268 46.1261 281.754 45.4543C281.781 45.419 281.807 45.3744 281.834 45.3306C281.869 45.2953 281.887 45.2507 281.914 45.2068C281.94 45.1716 281.958 45.1363 281.984 45.0917C282.002 45.0565 282.019 45.0213 282.037 44.9853C282.046 44.9587 282.064 44.9321 282.073 44.9054C282.091 44.8788 282.099 44.8522 282.108 44.8256C282.126 44.7904 282.153 44.7458 282.161 44.7019C282.214 44.5782 282.258 44.4544 282.303 44.3307C282.303 44.3307 282.303 44.3307 282.303 44.3221C282.33 44.2516 282.348 44.1717 282.365 44.1012C282.4 43.9775 282.435 43.8538 282.453 43.7473C282.462 43.7207 282.471 43.7027 282.471 43.6768C282.48 43.6589 282.48 43.6322 282.489 43.615C282.684 42.7309 282.922 40.9794 282.481 40.5722C282.065 40.1745 280.889 39.7055 278.996 39.8206C278.926 39.8206 278.863 39.8292 278.793 39.8292C278.501 39.8558 278.209 39.8997 277.926 39.9529C277.811 39.9709 277.696 39.9975 277.59 40.0234C277.289 40.0939 277.007 40.1737 276.741 40.2708C276.653 40.3061 276.564 40.3327 276.484 40.368C276.387 40.4118 276.289 40.4564 276.202 40.4917C276.184 40.5003 276.166 40.5089 276.148 40.5269C276.113 40.5449 276.078 40.5535 276.042 40.5802C275.785 40.7219 275.582 40.8722 275.476 41.0225C275.095 41.5534 275.21 42.7209 275.422 43.72Z" fill="#37474F"/>
<path d="M264.589 25.0702C264.6 24.9709 264.613 24.8724 264.626 24.7738C264.653 24.5911 264.691 24.3976 264.819 24.2645C265.215 23.8524 266.006 24.886 266.289 25.1277C266.56 25.3586 266.838 25.5831 267.131 25.7859C267.225 25.8506 267.914 26.188 267.922 26.2571C267.817 25.2795 267.672 24.2739 267.917 23.2956C268.032 22.6475 268.216 21.147 269.018 20.9859C269.496 20.8902 269.913 21.2894 270.268 21.6225C273.483 24.6314 277.68 23.2388 281.553 23.3625C284.792 23.4661 288.701 24.7839 290.163 27.9338C290.832 29.3746 290.947 30.8931 289.624 31.8894C288.77 32.5324 287.935 32.5022 287.458 33.5309C287.34 33.7833 286.6 36.8491 287.037 36.8182C285.385 36.9347 283.808 35.9629 283.427 34.3516C283.348 34.0164 283.168 33.4064 283.094 33.0619C282.985 32.5533 282.563 32.4166 282.168 32.5015C281.187 32.713 280.546 33.1151 279.615 33.3697C277.098 34.0596 274.019 34.3689 271.461 33.851C269.541 33.4618 267.686 32.5382 266.337 31.101C264.864 29.5285 264.358 27.1836 264.589 25.0702Z" fill="#263238"/>
<path d="M277.232 37.7125L280.073 38.1534C280.174 37.3471 279.618 36.594 278.834 36.4724C278.049 36.3508 277.332 36.9061 277.232 37.7125Z" fill="#263238"/>
<path d="M276.565 50.9349L274.172 51.5564C274.33 52.2405 274.994 52.6556 275.655 52.4844C276.317 52.3124 276.724 51.619 276.565 50.9349Z" fill="#F28F8F"/>
<path d="M266.453 37.8741L269.333 37.5583C269.275 36.7534 268.583 36.1715 267.788 36.2585C266.992 36.3463 266.394 37.0692 266.453 37.8741Z" fill="#263238"/>
<path d="M273.461 41.8317L273.073 48.5444L269.332 47.5676L273.061 41.7576C273.191 41.7497 273.324 41.7763 273.461 41.8317Z" fill="#F28F8F"/>
<path d="M289.503 46.4939C289.503 47.46 290.287 48.2433 291.253 48.2433C292.219 48.2433 293.002 47.46 293.002 46.4939C293.002 45.5278 292.219 44.7445 291.253 44.7445C290.287 44.7452 289.503 45.5278 289.503 46.4939Z" fill="#263238"/>
<path d="M289.313 43.2941C289.48 42.81 289.723 42.2504 290.089 41.8814C290.404 41.5627 291.014 41.3289 291.478 41.4066C291.502 41.4109 291.526 41.4678 291.5 41.4829C291.309 41.5987 291.168 41.6584 290.978 41.7943C290.792 41.9267 290.592 42.0792 290.44 42.2489C290.297 42.4093 290.189 42.6014 290.103 42.7956C290.009 43.0093 289.915 43.3056 289.901 43.5394C289.873 44.0084 289.901 44.3062 290.069 44.6925C290.156 44.8917 290.251 45.0795 290.4 45.2406C290.527 45.3787 290.705 45.4974 290.787 45.6693C290.893 45.8916 290.588 46.27 290.346 46.1405C289.878 45.8902 289.585 45.4068 289.395 44.9299C289.18 44.3918 289.121 43.8487 289.313 43.2941Z" fill="#263238"/>
<path d="M264.383 67.1931C261.95 68.7835 258.594 70.8581 257.774 73.1074C256.954 75.3567 254.587 88.416 254.324 92.6226C254.324 92.6226 257.864 94.3461 261.16 94.5504L264.383 67.1931Z" fill="#455A64"/>
<path d="M293.105 60.9708C299.264 64.3459 305.365 69.3991 306.642 71.342C306.642 71.342 303.037 83.3353 299.874 89.023C296.71 94.7107 295.007 111.539 295.007 111.539C295.007 111.539 273.311 118.739 266.511 119.299C259.711 119.86 258.849 116.974 258.849 116.974C258.849 116.974 258.707 98.1678 260.268 85.6113C261.829 73.0555 261.506 69.3258 264.382 67.193C266.243 65.814 274.27 62.3347 274.27 62.3347C274.27 62.3347 274.27 63.979 274.27 65.9442C278.683 66.0147 293.105 60.9708 293.105 60.9708Z" fill="#37474F"/>
<path d="M272.604 67.8693C272.604 67.8693 272.015 66.8565 272.142 65.2474L273.954 63.9296L273.985 66.2156L272.604 67.8693Z" fill="#27DEBF"/>
<path opacity="0.25" d="M272.604 67.8693C272.604 67.8693 272.015 66.8565 272.142 65.2474L273.954 63.9296L273.985 66.2156L272.604 67.8693Z" fill="black"/>
<path d="M276.125 66.4737L280.82 63.7957L284.339 66.5888L277.22 69.5438L276.125 66.4737Z" fill="#27DEBF"/>
<path opacity="0.25" d="M276.125 66.4737L280.82 63.7957L284.339 66.5888L277.22 69.5438L276.125 66.4737Z" fill="black"/>
<path d="M287.899 55.876V56.8219C287.719 57.7232 285.949 59.8064 281.483 61.8111C276.937 63.8511 275.157 65.9443 275.157 65.9443C275.157 65.9443 276.849 65.9371 278.698 66.5996C280.731 67.3276 284.111 69.9064 285.075 69.8819C286.014 69.8582 287.368 67.1924 289.899 64.5388C292.025 62.3089 293.105 60.9709 293.105 60.9709C293.105 60.9709 289.634 55.8954 287.899 55.876Z" fill="#455A64"/>
<path d="M275.157 65.9443C273.541 66.127 272.024 67.2485 271.629 66.655C271.233 66.0616 272.606 60.6559 275.146 59.0122L275.157 65.9443Z" fill="#455A64"/>
<path d="M259.479 94.3288C259.479 94.3288 259.28 97.6902 259.228 98.8383C259.177 99.9863 261.104 119.715 261.104 119.715L254.323 122.581C254.323 122.581 253.506 114.986 253.239 110.752C252.972 106.518 253.29 101.307 253.823 97.7082C254.356 94.1087 254.554 92.7312 254.554 92.7312C256.375 93.5728 258.046 93.985 259.479 94.3288Z" fill="#F28F8F"/>
<path d="M254.87 132.208C254.87 132.208 254.862 132.513 254.876 133.661C254.889 134.809 255.581 138.198 256.006 139.259C256.431 140.322 257.463 142.658 257.979 142.931C258.583 143.251 258.99 143.286 259.634 143.226C260.709 143.126 261.83 143.679 262.844 143.193C263.24 143.003 263.613 142.749 264.041 142.647C264.673 142.496 265.392 142.684 265.951 142.354C266.309 142.143 266.532 141.755 266.887 141.539C267.406 141.223 268.088 141.338 268.64 141.085C269.084 140.881 269.398 140.453 269.552 139.99C269.87 139.04 269.56 137.973 269.366 137.023C269.366 137.023 269.821 136.507 269.851 135.414C269.882 134.322 269.669 132.47 269.426 131.773C269.184 131.075 264.267 128.252 264.267 128.252L263.296 127.615C263.296 127.615 260.109 126.765 257.256 128.586C254.403 130.408 254.87 132.208 254.87 132.208Z" fill="#FFA8A7"/>
<path d="M256.2 132.074C254.9 134.241 255.664 138.121 255.669 138.167C255.259 136.689 254.886 134.542 254.875 133.662C254.861 132.514 254.869 132.209 254.869 132.209C254.869 132.209 254.402 130.409 257.255 128.588C260.108 126.766 263.295 127.616 263.295 127.616C263.295 127.616 257.507 129.895 256.2 132.074Z" fill="#F28F8F"/>
<path d="M269.365 137.024C268.971 135.689 267.817 133.672 267.271 133.163C266.725 132.654 266.27 132.017 266.816 132.229C267.362 132.442 268.121 132.57 268.424 132.188C268.728 131.805 268.788 132.473 268.454 132.988C268.121 133.504 268.394 133.899 268.788 134.748C269.183 135.598 269.277 136.545 269.365 137.024Z" fill="#F28F8F"/>
<path d="M304.761 71.5807C306.812 72.2863 307.086 77.9086 306.641 82.9402C306.197 87.9719 302.271 99.8825 300.479 104.028C298.469 108.678 297.251 111.365 295.915 112.826C294.579 114.287 291.781 115.482 288.201 117.338C284.958 119.019 282.743 119.866 277.224 121.579C270.995 123.513 268.605 123.632 267.268 124.557C265.932 125.482 265.568 127.502 264.266 128.253L263.295 127.616C261.602 127.957 258.773 129.086 257.099 130.201C255.513 131.259 254.869 132.208 254.869 132.208L254.874 133.661C254.874 133.661 253.296 134.329 251.96 131.494C250.623 128.659 250.007 124.445 251.548 122.594C253.09 120.744 257.961 118.242 261.899 116.974C265.836 115.707 267.819 114.442 272.438 111.651C277.358 108.677 280.771 106.7 283.203 105.364C284.136 104.827 284.761 104.169 285.177 102.454C285.505 101.097 286.495 97.0965 287.1 94.0926C288.106 89.1027 290.27 73.8976 304.761 71.5807Z" fill="#FFA8A7"/>
<path d="M306.642 71.3422C306.642 71.3422 307.596 71.5098 307.729 75.4898C307.862 79.4706 307.704 83.7174 307.186 86.7746C306.667 89.8324 303.611 98.8657 303.611 98.8657C303.611 98.8657 294.784 101.761 285.75 98.3068C285.75 98.3068 287.876 85.2877 288.673 81.8342C289.47 78.3801 300.638 67.7305 306.642 71.3422Z" fill="#455A64"/>
<path d="M275.411 71.6011C274.908 74.8352 274.211 82.5269 274.211 93.3808C274.211 96.0423 270.328 101.442 269.415 101.328C268.501 101.213 266.826 96.1343 266.589 93.1873C266.957 86.0523 271.271 74.9805 273.155 71.1997L275.411 71.6011Z" fill="#27DEBF"/>
<path opacity="0.15" d="M273.012 71.5076C273.06 71.4004 273.108 71.294 273.155 71.2004L275.411 71.6018L275.276 72.5499C274.349 72.4981 273.311 71.8572 273.012 71.5076Z" fill="black"/>
<path d="M276.126 66.4738C275.157 66.2141 273.985 66.2141 273.985 66.2141C273.985 66.2141 273.138 66.8263 272.604 67.8686C272.604 67.8686 272.484 69.8733 273.155 71.1997C273.155 71.1997 273.988 71.9018 275.411 71.6011C275.411 71.6011 276.76 70.7861 277.22 69.5439C277.366 68.4562 276.607 66.8263 276.126 66.4738Z" fill="#27DEBF"/>
</svg>
