<svg width="75" height="84" viewBox="0 0 75 84" fill="none" xmlns="http://www.w3.org/2000/svg">
<path d="M39.0525 83.2584L46.7886 79.0477C64.1644 69.5901 75 51.2522 75 31.3034V11.1638C75 9.596 73.7709 8.29466 72.2206 8.25211C53.9387 7.75133 42.5973 2.41685 38.8641 0.352036C38.0157 -0.117345 36.9845 -0.117345 36.1359 0.352036C32.4027 2.41685 21.0613 7.75112 2.77942 8.25211C1.22907 8.29466 0 9.596 0 11.1638V31.3034C0 51.2522 10.8356 69.5901 28.2114 79.0477L35.9475 83.2584C36.9166 83.7859 38.0834 83.7859 39.0525 83.2584Z" fill="#DADADB"/>
<path d="M71.2921 13.5347V30.6254C71.2921 49.6503 61.0085 67.0634 44.4558 76.075L38.968 79.0607C38.5117 79.3086 38.0058 79.435 37.5 79.435C36.9942 79.435 36.4884 79.3086 36.032 79.0607L30.5442 76.075C13.9917 67.0634 3.70789 49.6503 3.70789 30.6254V13.5347C3.70789 12.7263 4.3477 12.0642 5.15353 12.0071C20.7266 10.9482 31.4193 6.82174 36.8303 4.17841C37.046 4.07181 37.2716 4.01978 37.4998 4.01978C37.728 4.01978 37.9536 4.07181 38.1693 4.17841C43.5803 6.82195 54.2756 10.9482 69.8461 12.0071C70.6523 12.0642 71.2921 12.7263 71.2921 13.5347Z" fill="#21B99F"/>
<path d="M71.2922 13.5347V30.6254C71.2922 49.6503 61.0086 67.0634 44.4559 76.075L38.9681 79.0607C38.5117 79.3086 38.0059 79.435 37.5001 79.435V4.01978C37.7283 4.01978 37.9539 4.07181 38.1696 4.17841C43.5806 6.82195 54.2759 10.9482 69.8464 12.0071C70.6524 12.0642 71.2922 12.7263 71.2922 13.5347Z" fill="#178573"/>
<path d="M50.3503 34.9651H24.6497C23.1196 34.9651 21.8773 36.2074 21.8773 37.7376V58.2305C21.8773 59.7606 23.1196 61.0029 24.6497 61.0029H50.3503C51.8804 61.0029 53.1228 59.7606 53.1228 58.2305V37.7376C53.1226 36.2074 51.8802 34.9651 50.3503 34.9651ZM39.9799 49.2833V51.3317C39.9799 52.7005 38.869 53.8116 37.5 53.8116C36.1311 53.8116 35.0202 52.7007 35.0202 51.3317V49.2833C33.9662 48.5196 33.2842 47.2771 33.2842 45.8761C33.2842 43.5475 35.1714 41.6605 37.4998 41.6605C39.8282 41.6605 41.7154 43.5475 41.7154 45.8761C41.7156 47.2773 41.0336 48.5196 39.9799 49.2833Z" fill="white"/>
<path d="M46.6753 27.2877V30.5015C46.6753 31.5972 45.7871 32.4854 44.6914 32.4854C43.5957 32.4854 42.7075 31.5972 42.7075 30.5015V27.4155C42.7075 24.5954 40.5186 22.1904 37.7006 22.084C34.7381 21.9721 32.2924 24.3496 32.2924 27.2879V32.9815H28.3248V27.4372C28.3248 22.4369 32.2646 18.2413 37.2633 18.1155C39.8914 18.0494 42.2741 19.0876 43.9871 20.8006C45.6487 22.462 46.6753 24.7532 46.6753 27.2877Z" fill="white"/>
</svg>
