<svg width="387" height="258" viewBox="0 0 387 258" fill="none" xmlns="http://www.w3.org/2000/svg">
<path d="M113.459 63.0878L55.5619 101.816L112.588 187.068L170.485 148.34L113.459 63.0878Z" fill="#F5F5F5"/>
<path d="M140.569 144.304L139.911 148.371L111.13 144.225L111.787 140.158L140.569 144.304Z" fill="#E0E0E0"/>
<path d="M126.074 129.798L130.204 130.393L125.625 158.73L121.494 158.136L126.074 129.798Z" fill="#E0E0E0"/>
<path d="M99.5632 93.7805C99.6045 93.8424 93.8021 97.7955 86.6054 102.609C79.4062 107.425 73.5383 111.277 73.497 111.215C73.4557 111.154 79.2566 107.201 86.4563 102.386C93.653 97.5721 99.522 93.7191 99.5632 93.7805Z" fill="#E0E0E0"/>
<path d="M120.855 88.4357C120.897 88.4977 111.248 95.0235 99.3078 103.01C87.3629 110.999 77.6497 117.424 77.6085 117.362C77.5672 117.3 87.2138 110.775 99.1582 102.786C111.098 94.8001 120.814 88.3743 120.855 88.4357Z" fill="#E0E0E0"/>
<path d="M125.123 94.8166C125.165 94.8785 115.516 101.404 103.576 109.39C91.6308 117.38 81.9176 123.804 81.8763 123.743C81.835 123.681 91.4816 117.156 103.426 109.167C115.367 101.181 125.082 94.7552 125.123 94.8166Z" fill="#E0E0E0"/>
<path d="M129.391 101.198C129.432 101.26 119.784 107.786 107.843 115.772C95.8986 123.761 86.1854 130.186 86.1441 130.124C86.1028 130.062 95.7495 123.538 107.694 115.548C119.635 107.562 129.35 101.136 129.391 101.198Z" fill="#E0E0E0"/>
<path d="M133.659 107.579C133.701 107.641 124.052 114.166 112.112 122.153C100.167 130.142 90.4538 136.567 90.4125 136.505C90.3712 136.443 100.018 129.919 111.962 121.929C123.902 113.943 133.618 107.517 133.659 107.579Z" fill="#E0E0E0"/>
<path d="M307.061 120.216L258.437 152.741L306.329 224.338L354.953 191.813L307.061 120.216Z" fill="#F5F5F5"/>
<path d="M329.827 188.433L329.275 191.848L305.103 188.365L305.655 184.95L329.827 188.433Z" fill="#E0E0E0"/>
<path d="M317.654 176.25L321.122 176.75L317.277 200.548L313.808 200.049L317.654 176.25Z" fill="#E0E0E0"/>
<path d="M295.389 146.001C295.431 146.063 290.563 149.391 284.519 153.434C278.472 157.478 273.539 160.705 273.498 160.643C273.457 160.581 278.323 157.254 284.37 153.21C290.414 149.168 295.348 145.94 295.389 146.001Z" fill="#E0E0E0"/>
<path d="M313.271 141.512C313.312 141.574 305.215 147.063 295.187 153.77C285.155 160.48 276.992 165.867 276.951 165.805C276.91 165.743 285.006 160.256 295.037 153.547C305.065 146.84 313.23 141.451 313.271 141.512Z" fill="#E0E0E0"/>
<path d="M316.855 146.872C316.897 146.934 308.799 152.422 298.771 159.129C288.74 165.839 280.577 171.226 280.536 171.164C280.494 171.103 288.591 165.615 298.622 158.906C308.649 152.198 316.814 146.81 316.855 146.872Z" fill="#E0E0E0"/>
<path d="M320.44 152.23C320.481 152.292 312.383 157.78 302.355 164.488C292.324 171.198 284.161 176.585 284.12 176.523C284.079 176.462 292.175 170.974 302.206 164.265C312.234 157.558 320.398 152.169 320.44 152.23Z" fill="#E0E0E0"/>
<path d="M324.024 157.59C324.066 157.651 315.968 163.14 305.94 169.847C295.908 176.557 287.746 181.944 287.705 181.882C287.663 181.821 295.759 176.333 305.791 169.624C315.818 162.917 323.983 157.528 324.024 157.59Z" fill="#E0E0E0"/>
<path d="M230.131 66.2174L177.077 37.8433L135.297 115.963L188.351 144.337L230.131 66.2174Z" fill="#F5F5F5"/>
<path d="M179.27 119.902L175.904 121.055L167.36 97.4352L170.726 96.2825L179.27 119.902Z" fill="#E0E0E0"/>
<path d="M184.43 102.957L185.657 106.347L162.199 114.38L160.973 110.991L184.43 102.957Z" fill="#E0E0E0"/>
<path d="M201.098 68.1083C201.056 68.1862 195.675 65.389 189.08 61.8622C182.483 58.3337 177.17 55.4116 177.212 55.3337C177.254 55.2563 182.634 58.0525 189.231 61.5804C195.826 65.1078 201.139 68.0309 201.098 68.1083Z" fill="#E0E0E0"/>
<path d="M213.829 82.1612C213.787 82.2391 204.881 77.5569 193.94 71.7055C182.995 65.8515 174.158 61.0449 174.2 60.967C174.242 60.8896 183.145 65.5702 194.091 71.4243C205.032 77.2757 213.871 82.0833 213.829 82.1612Z" fill="#E0E0E0"/>
<path d="M210.702 88.0084C210.66 88.0863 201.754 83.4041 190.813 77.5522C179.868 71.6981 171.031 66.8916 171.073 66.8137C171.115 66.7363 180.018 71.4169 190.964 77.2709C201.905 83.1224 210.743 87.9305 210.702 88.0084Z" fill="#E0E0E0"/>
<path d="M207.574 93.8552C207.533 93.9331 198.627 89.2509 187.686 83.399C176.74 77.5455 167.904 72.7384 167.946 72.6605C167.987 72.5826 176.891 77.2637 187.836 83.1178C198.778 88.9697 207.616 93.7778 207.574 93.8552Z" fill="#E0E0E0"/>
<path d="M204.447 99.7026C204.406 99.7805 195.501 95.0983 184.559 89.2464C173.613 83.3929 164.777 78.5858 164.819 78.5079C164.86 78.4305 173.764 83.1111 184.709 88.9652C195.651 94.8171 204.489 99.6252 204.447 99.7026Z" fill="#E0E0E0"/>
<path opacity="0.2" d="M204.726 0H203.393V22.6952H204.726V0Z" fill="black"/>
<path d="M172.98 50.1495H235.138C235.138 50.1495 229.399 22.6813 203.588 22.6813C180.63 22.6808 172.98 50.1495 172.98 50.1495Z" fill="#21B99F"/>
<path d="M204.726 0H203.393V22.6952H204.726V0Z" fill="#21B99F"/>
<path d="M342.452 226.951C342.452 227.026 275.759 227.085 193.507 227.085C111.227 227.085 44.5483 227.025 44.5483 226.951C44.5483 226.877 111.227 226.817 193.507 226.817C275.759 226.817 342.452 226.878 342.452 226.951Z" fill="#263238"/>
<path d="M61.0356 194.636C62.7802 194.697 64.418 195.644 65.5687 196.957C66.7193 198.27 67.4247 199.921 67.8762 201.607C68.7493 204.87 68.2127 208.721 67.2823 211.968C63.7498 210.705 61.5717 206.938 60.5867 204.957C59.0294 201.827 58.1166 195.224 61.0356 194.636Z" fill="#21B99F"/>
<path d="M72.3649 215.922C71.2503 214.322 71.224 212.097 72.1053 210.357C72.9862 208.617 74.6792 207.362 76.5435 206.79C77.4057 206.525 78.4057 206.413 79.1555 206.914C79.8567 207.382 80.1596 208.301 80.0688 209.139C79.9785 209.977 79.5538 210.745 79.0528 211.423C77.335 213.748 75.2457 215.683 72.3649 215.922Z" fill="#21B99F"/>
<path d="M72.7534 226.825C72.7364 226.828 72.6827 226.586 72.5955 226.147C72.5011 225.663 72.3788 225.038 72.2323 224.288C71.9536 222.724 71.5114 220.501 71.8458 218.043C72.1672 215.595 73.1415 213.503 74.1626 212.254C74.6652 211.622 75.1466 211.175 75.5027 210.9C75.675 210.755 75.8267 210.666 75.9232 210.598C76.0218 210.533 76.076 210.502 76.0811 210.509C76.1198 210.553 75.2555 211.085 74.3004 212.359C73.3329 213.613 72.4056 215.669 72.0888 218.075C71.7596 220.483 72.1672 222.687 72.4031 224.258C72.5295 225.048 72.6311 225.688 72.69 226.132C72.7483 226.576 72.7699 226.823 72.7534 226.825Z" fill="#263238"/>
<path d="M62.1749 199.602C62.1827 199.599 62.2317 199.691 62.3173 199.87C62.4112 200.073 62.532 200.333 62.6811 200.656C62.9933 201.341 63.4319 202.337 63.9639 203.573C65.0284 206.044 66.4505 209.479 67.9355 213.307C69.4201 217.136 70.6853 220.632 71.5651 223.175C72.0058 224.446 72.353 225.478 72.5842 226.194C72.6915 226.533 72.7782 226.806 72.8453 227.02C72.9026 227.21 72.9284 227.31 72.9206 227.314C72.9124 227.316 72.8711 227.221 72.7988 227.036C72.7204 226.826 72.6193 226.558 72.4944 226.225C72.2261 225.489 71.8556 224.475 71.402 223.233C70.4805 220.706 69.1905 217.222 67.707 213.395C66.2229 209.57 64.8266 206.127 63.8039 203.64C63.3013 202.417 62.8906 201.418 62.5929 200.694C62.4608 200.364 62.354 200.097 62.2709 199.889C62.2007 199.704 62.1672 199.606 62.1749 199.602Z" fill="#263238"/>
<path d="M68.5604 219.612C66.4773 216.067 62.5877 213.65 58.4871 213.353C57.4427 213.277 56.1867 213.453 55.7213 214.391C55.2548 215.33 55.8787 216.442 56.5903 217.212C59.55 220.418 64.5573 221.536 68.5996 219.893" fill="#21B99F"/>
<path d="M60.0774 216.148C60.0784 216.131 60.3106 216.141 60.7312 216.173C60.9417 216.187 61.1992 216.206 61.4938 216.261C61.7879 216.315 62.13 216.347 62.4943 216.449C62.8612 216.539 63.2658 216.629 63.6847 216.78C64.112 216.906 64.5506 217.089 65.0114 217.284C65.9216 217.697 66.887 218.238 67.8066 218.941C68.7194 219.653 69.4903 220.448 70.1172 221.228C70.4185 221.628 70.7065 222.006 70.9309 222.391C71.1791 222.761 71.3633 223.133 71.5362 223.469C71.7214 223.799 71.8308 224.125 71.9521 224.399C72.0744 224.673 72.1508 224.919 72.2116 225.122C72.337 225.525 72.3979 225.748 72.3819 225.753C72.3298 225.771 72.0785 224.869 71.383 223.548C71.2024 223.222 71.0119 222.86 70.7601 222.501C70.5321 222.126 70.2421 221.758 69.9412 221.369C69.3148 220.61 68.5537 219.834 67.6574 219.135C66.7544 218.445 65.8096 217.908 64.9185 217.49C64.4675 217.292 64.0382 217.105 63.6197 216.972C63.21 216.815 62.8127 216.717 62.4531 216.617C61.0057 216.251 60.0717 216.201 60.0774 216.148Z" fill="#263238"/>
<path d="M294.306 54.4251C292.789 54.7744 292.05 56.5201 291.906 58.0706C291.762 59.6207 291.96 61.258 291.309 62.6723C290.577 64.2642 288.826 65.4376 288.768 67.1894C288.732 68.257 289.367 69.2611 289.336 70.3292C289.286 72.0831 287.498 73.4087 287.404 75.1611C287.336 76.4227 288.176 77.6337 287.974 78.8809C287.817 79.8515 287.062 80.6162 286.742 81.5461C286.105 83.4 287.379 85.4408 289.038 86.4842C290.887 87.6472 293.254 87.947 295.334 87.2824C297.415 86.6178 299.17 85.0002 300.001 82.9811C300.919 80.7524 300.719 78.2431 300.519 75.8417C299.898 68.3566 299.435 60.8586 299.133 53.3539" fill="#263238"/>
<path d="M289.901 80.8386C289.869 80.8092 290.316 80.6761 290.595 80.014C290.729 79.6905 290.799 79.255 290.771 78.7545C290.754 78.2509 290.582 77.7023 290.395 77.0837C290.222 76.4707 289.997 75.7591 290.126 74.9681C290.256 74.1647 290.831 73.5047 291.355 72.8566C291.619 72.5279 291.885 72.1863 292.052 71.7978C292.228 71.4133 292.266 70.9732 292.132 70.5604C291.866 69.7172 291.04 69.097 290.661 68.1238C290.473 67.6362 290.471 67.1006 290.578 66.6182C290.68 66.131 290.877 65.6888 291.076 65.2678C291.48 64.4277 291.924 63.6573 292.101 62.8395C292.463 61.2027 292.294 59.6403 292.541 58.357C292.764 57.0711 293.307 56.1047 293.846 55.6077C294.108 55.3508 294.362 55.214 294.527 55.1217C294.704 55.0458 294.796 55.0107 294.8 55.0195C294.818 55.0484 294.418 55.1712 293.919 55.6815C293.422 56.1846 292.923 57.1299 292.728 58.3885C292.625 59.0144 292.61 59.7182 292.584 60.4736C292.558 61.2285 292.534 62.0485 292.342 62.8957C292.163 63.7544 291.706 64.5552 291.313 65.3803C290.925 66.1909 290.569 67.1414 290.912 68.0299C291.24 68.9082 292.071 69.532 292.383 70.4809C292.536 70.9531 292.486 71.4763 292.287 71.8994C292.097 72.3298 291.816 72.6817 291.547 73.0119C291.008 73.6641 290.468 74.2844 290.344 75.0068C290.215 75.725 290.415 76.418 290.577 77.0315C290.75 77.6451 290.917 78.223 290.921 78.7478C290.935 79.2679 290.847 79.7209 290.69 80.0558C290.534 80.3928 290.321 80.6012 290.161 80.707C290.003 80.8159 289.901 80.8386 289.901 80.8386Z" fill="#455A64"/>
<path d="M285.839 93.0688L281.181 106.496L261.757 107.537L258.518 114.745L278.797 116.797C282.841 118.468 287.461 116.419 288.937 112.3L294.349 97.1943L285.839 93.0688Z" fill="#B78876"/>
<path d="M326.016 219.66C326.016 219.66 311.782 174.449 311.48 172.981C311.207 171.655 316.645 139.119 317.331 130.699L298.097 131.416C298.097 131.416 298.097 131.468 298.096 131.557L289.92 132.01L297.243 224.474H306.094L305.216 193.797C310.674 208.45 318.495 223.382 318.495 223.382L326.016 219.66Z" fill="#B78876"/>
<path d="M305.577 204.792C305.584 204.511 305.469 194.513 305.469 194.513C305.359 195.112 302.076 185.833 302.156 185.269C302.196 184.977 305.577 204.792 305.577 204.792Z" fill="#A36957"/>
<path d="M301.781 180.876C301.761 180.876 301.742 181.075 301.724 181.436C301.705 181.798 301.701 182.322 301.736 182.97C301.749 183.294 301.783 183.648 301.824 184.027C301.873 184.405 301.924 184.811 302.012 185.231C302.173 186.075 302.42 186.988 302.736 187.925C303.379 189.795 304.088 191.431 304.591 192.618C304.83 193.159 305.035 193.625 305.207 194.016C305.358 194.344 305.451 194.522 305.47 194.514C305.489 194.506 305.432 194.314 305.314 193.973C305.195 193.632 305.014 193.142 304.784 192.54C304.33 191.333 303.652 189.685 303.015 187.831C302.703 186.903 302.451 186.006 302.278 185.178C302.185 184.765 302.125 184.367 302.067 183.995C302.015 183.622 301.97 183.274 301.945 182.955C301.884 182.316 301.856 181.796 301.84 181.436C301.821 181.076 301.801 180.876 301.781 180.876Z" fill="#A36957"/>
<path d="M297.076 224.93L297.073 224.098L306.139 223.703L306.164 227.132L305.604 227.17C303.116 227.315 292.941 227.735 291.275 227.236C289.417 226.679 297.076 224.93 297.076 224.93Z" fill="#455A64"/>
<path d="M306.289 226.924C306.289 226.928 306.236 226.934 306.135 226.942C306.001 226.951 305.854 226.96 305.689 226.97C305.244 226.991 304.696 227.017 304.05 227.047C302.665 227.101 300.752 227.152 298.638 227.161C296.523 227.17 294.608 227.136 293.224 227.094C292.577 227.07 292.03 227.049 291.584 227.032C291.419 227.022 291.272 227.015 291.139 227.007C291.037 227 290.983 226.995 290.984 226.991C290.984 226.987 291.037 226.985 291.14 226.985C291.274 226.986 291.42 226.987 291.586 226.989C292.032 226.996 292.579 227.005 293.226 227.016C294.611 227.039 296.524 227.061 298.638 227.051C300.751 227.042 302.663 227.004 304.048 226.969C304.694 226.952 305.242 226.938 305.688 226.927C305.853 226.924 306 226.921 306.134 226.919C306.236 226.919 306.289 226.921 306.289 226.924Z" fill="#263238"/>
<path d="M294.139 227.216C294.105 227.221 294.078 226.829 293.829 226.435C293.587 226.036 293.249 225.838 293.269 225.81C293.275 225.782 293.662 225.951 293.923 226.378C294.188 226.802 294.166 227.223 294.139 227.216Z" fill="#263238"/>
<path d="M296.795 225.857C296.77 225.873 296.642 225.718 296.51 225.512C296.377 225.305 296.291 225.124 296.317 225.108C296.342 225.091 296.47 225.246 296.602 225.453C296.734 225.66 296.821 225.841 296.795 225.857Z" fill="#263238"/>
<path d="M297.524 225.468C297.504 225.49 297.362 225.396 297.205 225.257C297.049 225.117 296.939 224.987 296.959 224.964C296.979 224.941 297.122 225.036 297.278 225.175C297.434 225.314 297.544 225.445 297.524 225.468Z" fill="#263238"/>
<path d="M297.983 224.615C297.983 224.645 297.773 224.673 297.512 224.677C297.252 224.68 297.041 224.659 297.04 224.629C297.04 224.599 297.25 224.571 297.511 224.567C297.771 224.564 297.982 224.585 297.983 224.615Z" fill="#263238"/>
<path d="M298.139 224.014C298.149 224.041 297.92 224.145 297.614 224.169C297.309 224.194 297.066 224.127 297.072 224.099C297.077 224.068 297.316 224.084 297.606 224.06C297.896 224.038 298.129 223.984 298.139 224.014Z" fill="#263238"/>
<path d="M296.486 225.071C296.487 225.083 296.265 225.111 295.907 225.069C295.728 225.049 295.517 225.007 295.289 224.936C295.176 224.896 295.058 224.866 294.936 224.791C294.879 224.753 294.815 224.699 294.792 224.612C294.768 224.525 294.813 224.427 294.879 224.379C295.432 224.09 295.988 224.4 296.195 224.685C296.308 224.831 296.361 224.973 296.385 225.071C296.409 225.17 296.407 225.227 296.401 225.228C296.38 225.235 296.36 225 296.135 224.734C296.024 224.604 295.855 224.478 295.639 224.415C295.434 224.355 295.142 224.339 294.948 224.464C294.856 224.533 294.892 224.641 294.995 224.701C295.09 224.763 295.214 224.799 295.321 224.839C295.541 224.914 295.745 224.962 295.918 224.992C296.266 225.053 296.486 225.053 296.486 225.071Z" fill="#263238"/>
<path d="M296.336 225.1C296.328 225.106 296.242 224.959 296.268 224.698C296.282 224.57 296.328 224.418 296.425 224.274C296.527 224.145 296.658 223.967 296.906 223.977C297.041 223.994 297.107 224.146 297.086 224.244C297.076 224.345 297.031 224.433 296.988 224.503C296.903 224.648 296.806 224.766 296.716 224.855C296.535 225.033 296.391 225.102 296.385 225.091C296.375 225.077 296.5 224.987 296.659 224.803C296.738 224.711 296.824 224.594 296.901 224.454C296.98 224.331 297.033 224.111 296.888 224.085C296.743 224.071 296.595 224.216 296.507 224.332C296.416 224.458 296.366 224.594 296.344 224.71C296.301 224.945 296.356 225.096 296.336 225.1Z" fill="#263238"/>
<path d="M306.096 224.457C306.094 224.477 305.838 224.434 305.431 224.483C305.027 224.53 304.466 224.697 303.979 225.088C303.492 225.48 303.207 225.991 303.075 226.375C302.938 226.762 302.926 227.022 302.905 227.02C302.899 227.019 302.895 226.955 302.904 226.838C302.913 226.721 302.941 226.552 303.001 226.351C303.117 225.95 303.402 225.411 303.91 225.003C304.418 224.596 305.006 224.434 305.422 224.407C305.632 224.391 305.803 224.401 305.918 224.418C306.035 224.433 306.097 224.451 306.096 224.457Z" fill="#263238"/>
<path d="M301.755 226.206C301.758 226.235 301.17 226.328 300.437 226.332C299.704 226.337 299.115 226.249 299.119 226.221C299.122 226.189 299.71 226.227 300.437 226.222C301.163 226.219 301.751 226.175 301.755 226.206Z" fill="#263238"/>
<path d="M303.522 226.187C303.544 226.209 303.474 226.312 303.415 226.448C303.353 226.582 303.323 226.703 303.291 226.701C303.262 226.701 303.244 226.559 303.315 226.403C303.384 226.246 303.502 226.165 303.522 226.187Z" fill="#263238"/>
<path d="M304.185 225.355C304.207 225.376 304.149 225.47 304.056 225.565C303.963 225.66 303.87 225.72 303.849 225.699C303.827 225.678 303.885 225.584 303.978 225.489C304.071 225.394 304.163 225.334 304.185 225.355Z" fill="#263238"/>
<path d="M305.137 224.973C305.131 225.003 305.011 225.003 304.879 225.05C304.745 225.094 304.651 225.169 304.627 225.148C304.603 225.131 304.678 225.003 304.843 224.947C305.008 224.89 305.146 224.945 305.137 224.973Z" fill="#263238"/>
<path d="M305.815 224.792C305.826 224.82 305.774 224.867 305.7 224.895C305.625 224.925 305.555 224.926 305.544 224.898C305.533 224.87 305.585 224.823 305.66 224.794C305.735 224.765 305.804 224.764 305.815 224.792Z" fill="#263238"/>
<path d="M318.317 224.13L317.973 223.373L326.082 219.299L327.509 222.417L327.014 222.68C324.803 223.832 315.693 228.383 313.969 228.61C312.047 228.862 318.317 224.13 318.317 224.13Z" fill="#455A64"/>
<path d="M327.539 222.176C327.541 222.179 327.495 222.206 327.405 222.255C327.287 222.318 327.157 222.386 327.01 222.464C326.613 222.665 326.123 222.913 325.546 223.205C324.306 223.822 322.581 224.652 320.656 225.527C318.73 226.401 316.97 227.155 315.689 227.683C315.09 227.925 314.581 228.131 314.168 228.298C314.014 228.357 313.877 228.41 313.752 228.458C313.656 228.494 313.605 228.511 313.604 228.507C313.602 228.503 313.65 228.48 313.743 228.438C313.866 228.384 314 228.325 314.152 228.259C314.562 228.083 315.065 227.867 315.659 227.612C316.932 227.066 318.686 226.302 320.611 225.428C322.535 224.553 324.264 223.735 325.513 223.136C326.096 222.856 326.59 222.619 326.992 222.426C327.141 222.355 327.274 222.293 327.395 222.236C327.488 222.193 327.537 222.172 327.539 222.176Z" fill="#263238"/>
<path d="M316.574 227.419C316.546 227.437 316.361 227.091 315.972 226.833C315.588 226.568 315.198 226.525 315.204 226.492C315.199 226.465 315.621 226.459 316.033 226.742C316.449 227.02 316.602 227.414 316.574 227.419Z" fill="#263238"/>
<path d="M318.441 225.09C318.424 225.116 318.244 225.027 318.039 224.893C317.833 224.758 317.68 224.629 317.697 224.604C317.713 224.579 317.893 224.667 318.098 224.802C318.304 224.936 318.457 225.065 318.441 225.09Z" fill="#263238"/>
<path d="M318.946 224.437C318.937 224.466 318.768 224.438 318.569 224.375C318.37 224.312 318.216 224.238 318.225 224.209C318.234 224.18 318.403 224.208 318.602 224.271C318.801 224.334 318.955 224.408 318.946 224.437Z" fill="#263238"/>
<path d="M319.015 223.471C319.028 223.499 318.847 223.61 318.612 223.721C318.376 223.83 318.174 223.898 318.162 223.87C318.149 223.843 318.33 223.731 318.566 223.621C318.801 223.511 319.003 223.444 319.015 223.471Z" fill="#263238"/>
<path d="M318.912 222.859C318.932 222.879 318.766 223.068 318.496 223.215C318.228 223.363 317.979 223.401 317.973 223.373C317.964 223.342 318.189 223.26 318.444 223.119C318.7 222.98 318.891 222.836 318.912 222.859Z" fill="#263238"/>
<path d="M317.837 224.5C317.843 224.511 317.651 224.628 317.307 224.736C317.136 224.79 316.926 224.839 316.689 224.867C316.57 224.877 316.45 224.899 316.307 224.881C316.239 224.869 316.159 224.846 316.103 224.776C316.045 224.707 316.047 224.599 316.087 224.529C316.473 224.038 317.107 224.093 317.413 224.269C317.576 224.355 317.682 224.464 317.745 224.543C317.806 224.624 317.828 224.676 317.823 224.679C317.807 224.695 317.693 224.488 317.378 224.338C317.223 224.265 317.018 224.219 316.795 224.249C316.583 224.279 316.311 224.384 316.185 224.578C316.129 224.678 316.206 224.761 316.324 224.775C316.437 224.791 316.564 224.775 316.678 224.767C316.91 224.745 317.116 224.706 317.286 224.662C317.628 224.575 317.83 224.484 317.837 224.5Z" fill="#263238"/>
<path d="M317.712 224.588C317.707 224.598 317.568 224.498 317.485 224.249C317.445 224.127 317.425 223.969 317.454 223.798C317.494 223.639 317.541 223.423 317.771 223.33C317.901 223.29 318.203 223.55 318.224 223.648C318.256 223.745 318.071 223.695 318.061 223.777C318.043 223.944 318.003 224.091 317.957 224.209C317.865 224.446 317.762 224.567 317.752 224.56C317.737 224.551 317.814 224.418 317.884 224.184C317.918 224.068 317.949 223.926 317.961 223.767C317.983 223.623 317.942 223.4 317.799 223.436C317.661 223.483 317.586 223.676 317.553 223.818C317.522 223.97 317.531 224.114 317.559 224.229C317.617 224.462 317.728 224.577 317.712 224.588Z" fill="#263238"/>
<path d="M326.352 220.004C326.359 220.023 326.107 220.088 325.755 220.3C325.406 220.507 324.963 220.89 324.679 221.446C324.395 222.002 324.345 222.586 324.381 222.99C324.415 223.4 324.511 223.642 324.491 223.648C324.485 223.65 324.455 223.593 324.416 223.482C324.376 223.372 324.332 223.207 324.304 222.999C324.247 222.585 324.285 221.976 324.582 221.397C324.878 220.817 325.348 220.429 325.717 220.233C325.902 220.133 326.062 220.072 326.174 220.039C326.286 220.007 326.35 219.998 326.352 220.004Z" fill="#263238"/>
<path d="M323.108 223.378C323.123 223.402 322.625 223.729 321.958 224.032C321.291 224.337 320.718 224.498 320.709 224.471C320.699 224.441 321.252 224.235 321.912 223.933C322.573 223.632 323.092 223.35 323.108 223.378Z" fill="#263238"/>
<path d="M324.712 222.636C324.741 222.647 324.72 222.77 324.721 222.918C324.72 223.066 324.741 223.189 324.712 223.2C324.685 223.212 324.611 223.089 324.611 222.918C324.611 222.747 324.685 222.625 324.712 222.636Z" fill="#263238"/>
<path d="M324.976 221.606C325.005 221.616 324.99 221.726 324.944 221.851C324.898 221.975 324.838 222.068 324.81 222.058C324.782 222.047 324.796 221.938 324.842 221.813C324.888 221.689 324.948 221.596 324.976 221.606Z" fill="#263238"/>
<path d="M325.688 220.868C325.695 220.898 325.586 220.947 325.484 221.044C325.38 221.138 325.325 221.244 325.295 221.235C325.266 221.23 325.282 221.082 325.409 220.964C325.536 220.844 325.685 220.838 325.688 220.868Z" fill="#263238"/>
<path d="M326.233 220.424C326.254 220.445 326.226 220.509 326.17 220.566C326.114 220.624 326.051 220.653 326.029 220.632C326.008 220.611 326.036 220.547 326.092 220.49C326.148 220.433 326.211 220.403 326.233 220.424Z" fill="#263238"/>
<path d="M316.083 115.396L314.573 96.9759L322.328 97.1142C322.328 97.1142 322.687 94.3985 321.544 88.4408C320.844 84.7875 318.411 82.547 315.682 81.2158L315.683 81.1667L315.446 81.1048C311.976 79.4804 308.343 79.2513 308.343 79.2513L298.824 79.3612C298.824 79.3612 291.553 78.4541 287.528 83.6379C285.978 85.6348 281.18 99.301 281.18 99.301L292.606 104.803L291.518 97.2247C291.518 97.2247 291.734 102.72 292.435 104.461C292.826 105.431 293.957 108.442 293.957 108.442L293.809 117.531L316.083 115.396Z" fill="#21B99F"/>
<path d="M310.832 94.302L309.419 100.322H322.748L321.871 90.2297L310.832 94.302Z" fill="#21B99F"/>
<path d="M322.748 100.322C322.75 100.282 322.076 100.211 320.983 100.147C319.891 100.083 318.38 100.029 316.709 100.037C315.038 100.045 313.526 100.117 312.435 100.204C311.344 100.29 310.672 100.383 310.675 100.421C310.678 100.464 311.355 100.445 312.446 100.411C313.538 100.378 315.045 100.339 316.711 100.33C318.376 100.323 319.884 100.344 320.977 100.355C322.069 100.366 322.746 100.363 322.748 100.322Z" fill="#263238"/>
<path d="M310.257 90.1802C310.216 90.1817 310.202 90.7669 310.212 91.7111C310.223 92.6559 310.257 93.9594 310.313 95.399C310.368 96.8386 310.435 98.1415 310.499 99.0843C310.562 100.026 310.622 100.609 310.662 100.607C310.703 100.605 310.717 100.02 310.706 99.076C310.696 98.1317 310.662 96.8273 310.606 95.3876C310.55 93.948 310.483 92.6456 310.42 91.7029C310.357 90.7612 310.298 90.1786 310.257 90.1802Z" fill="#263238"/>
<g opacity="0.3">
<path d="M298.128 95.3939C298.128 95.3939 301.091 117.359 309.419 116.777C309.419 116.777 313.168 116.733 314.374 114.241V113.26L298.128 95.3939Z" fill="black"/>
</g>
<g opacity="0.3">
<path d="M310.257 91.4749L308.663 102.243L309.695 104.132L311.394 100.438L310.675 100.421L310.257 91.4749Z" fill="black"/>
</g>
<path d="M293.958 108.443C293.94 108.449 293.861 108.266 293.733 107.929C293.603 107.592 293.432 107.1 293.232 106.487C292.835 105.261 292.343 103.545 291.958 101.613C291.575 99.6798 291.387 97.9017 291.326 96.6127C291.295 95.9682 291.286 95.4461 291.295 95.0854C291.303 94.7247 291.315 94.5255 291.334 94.5255C291.376 94.525 291.405 95.3207 291.516 96.5998C291.625 97.879 291.841 99.6401 292.222 101.561C292.604 103.481 293.064 105.196 293.415 106.432C293.578 107.005 293.718 107.494 293.833 107.897C293.93 108.242 293.976 108.437 293.958 108.443Z" fill="#263238"/>
<path d="M297.325 114.755C297.254 114.776 297.048 114.302 296.865 113.696C296.682 113.09 296.591 112.582 296.662 112.56C296.733 112.538 296.939 113.013 297.122 113.618C297.305 114.224 297.397 114.733 297.325 114.755Z" fill="#263238"/>
<path d="M298.477 114.671C298.408 114.688 298.183 113.977 298.172 113.065C298.157 112.153 298.36 111.435 298.429 111.451C298.505 111.465 298.425 112.18 298.44 113.061C298.451 113.941 298.553 114.655 298.477 114.671Z" fill="#263238"/>
<path d="M292.838 105.055C292.805 105.122 290.146 103.86 286.9 102.238C283.653 100.615 281.048 99.2468 281.082 99.1803C281.115 99.1137 283.773 100.375 287.02 101.998C290.266 103.62 292.871 104.989 292.838 105.055Z" fill="#263238"/>
<path d="M297.524 81.1426C297.583 78.5322 297.598 75.7829 297.598 75.7829C297.598 75.7829 294.25 75.1379 293.666 70.7323C293.11 66.531 294.666 56.6729 294.666 56.6729C299.557 54.824 304.639 56.5 307.99 60.4629L307.158 81.6571C307.062 84.1173 304.869 85.994 302.236 85.8707C299.575 85.7458 297.467 83.6297 297.524 81.1426Z" fill="#B78876"/>
<path d="M294.412 64.5517C294.393 64.8484 294.63 65.1084 294.939 65.1332C295.249 65.158 295.514 64.9377 295.532 64.641C295.55 64.3443 295.314 64.0837 295.005 64.0589C294.695 64.0341 294.43 64.255 294.412 64.5517Z" fill="#263238"/>
<path d="M294.202 63.8122C294.27 63.8876 294.705 63.5831 295.31 63.6001C295.915 63.6084 296.351 63.9314 296.419 63.8592C296.452 63.8272 296.384 63.693 296.194 63.547C296.008 63.402 295.686 63.257 295.309 63.2487C294.932 63.241 294.611 63.3716 294.425 63.5093C294.235 63.6476 294.169 63.7787 294.202 63.8122Z" fill="#263238"/>
<path d="M300.555 64.9341C300.537 65.2308 300.773 65.4913 301.083 65.5161C301.392 65.5409 301.658 65.3205 301.676 65.0238C301.694 64.7271 301.457 64.4666 301.148 64.4418C300.839 64.4165 300.573 64.6374 300.555 64.9341Z" fill="#263238"/>
<path d="M300.514 64.1951C300.582 64.2705 301.017 63.966 301.622 63.9831C302.226 63.9918 302.663 64.3149 302.73 64.2421C302.764 64.2101 302.696 64.0759 302.506 63.9299C302.319 63.7849 301.998 63.6399 301.621 63.6317C301.243 63.6239 300.922 63.7545 300.737 63.8923C300.547 64.0305 300.481 64.1616 300.514 64.1951Z" fill="#263238"/>
<path d="M298.201 68.6286C298.204 68.594 297.83 68.5197 297.222 68.4258C297.067 68.4057 296.922 68.3716 296.899 68.2653C296.865 68.1528 296.934 67.9877 297.014 67.8097C297.169 67.4392 297.331 67.0512 297.501 66.644C298.179 64.9841 298.675 63.6177 298.608 63.5909C298.541 63.564 297.936 64.8876 297.258 66.5475C297.095 66.9567 296.938 67.3473 296.79 67.7204C296.727 67.8948 296.621 68.0914 296.694 68.3252C296.732 68.4418 296.844 68.5285 296.942 68.5579C297.041 68.5909 297.127 68.5945 297.204 68.6012C297.817 68.6508 298.197 68.6631 298.201 68.6286Z" fill="#263238"/>
<path d="M297.597 75.7828C297.597 75.7828 300.544 76.0491 303.513 74.3669C303.513 74.3669 302.01 77.3443 297.629 76.82L297.597 75.7828Z" fill="#A36957"/>
<path d="M302.452 62.4484C302.327 62.6378 301.867 62.5537 301.351 62.4608C300.837 62.3571 300.378 62.2658 300.332 62.0439C300.281 61.8313 300.814 61.5366 301.502 61.6687C302.191 61.7998 302.578 62.2694 302.452 62.4484Z" fill="#263238"/>
<path d="M296.432 61.5598C296.385 61.7806 295.892 61.8611 295.323 61.89C294.754 61.9133 294.256 61.8782 294.189 61.663C294.121 61.4545 294.602 61.115 295.286 61.0851C295.97 61.0521 296.48 61.3457 296.432 61.5598Z" fill="#263238"/>
<path d="M298.21 70.0779C298.083 70.0423 297.939 70.1151 297.875 70.2312C297.799 70.3689 297.834 70.5588 297.955 70.6605C298.075 70.7621 298.268 70.7647 298.391 70.6662C298.515 70.5681 298.555 70.3793 298.483 70.2394C298.411 70.0996 298.234 70.0232 298.082 70.0666" fill="#A36957"/>
<path d="M298.352 70.1378C298.38 70.1136 298.255 69.965 297.991 70.0228C297.869 70.0496 297.709 70.1595 297.66 70.3473C297.612 70.5238 297.656 70.7524 297.842 70.8958C298.036 71.0321 298.269 71.0042 298.423 70.8994C298.588 70.7911 298.634 70.5929 298.609 70.4691C298.556 70.1972 298.354 70.1538 298.349 70.1915C298.326 70.2256 298.419 70.32 298.401 70.481C298.392 70.5599 298.354 70.6332 298.278 70.6703C298.203 70.7111 298.084 70.7111 298.016 70.659C297.946 70.6084 297.909 70.4959 297.923 70.4092C297.934 70.3226 297.992 70.2581 298.062 70.2183C298.206 70.1368 298.333 70.175 298.352 70.1378Z" fill="#263238"/>
<path d="M305.962 65.6393C305.44 66.8488 304.167 67.7807 304.343 69.0862C304.457 69.9288 304.998 70.7147 304.893 71.5589C304.76 72.6187 303.659 73.3535 303.503 74.4103C303.313 75.7065 304.573 76.7137 305.077 77.9232C305.81 79.6843 304.872 81.6653 304.85 83.5729C304.816 86.495 307.301 89.2247 310.213 89.4646C311.391 89.5616 312.718 89.2061 313.329 88.1942C313.833 87.3593 313.732 86.2984 314.034 85.3712C314.484 83.9903 315.8 82.9795 316.078 81.5538C316.584 78.9547 313.443 76.804 313.649 74.1642C313.737 73.0362 314.434 72.0522 314.73 70.9603C315.118 69.53 314.762 67.919 313.808 66.7848C313.033 65.8628 311.908 65.2565 311.248 64.2492C310.499 63.1068 310.474 61.6584 310.191 60.3219C309.504 57.0655 307.058 54.2368 303.935 53.085C300.812 51.9333 297.115 52.4968 294.478 54.5262C294.478 54.5262 293.727 57.9272 297.218 58.4958C300.709 59.0645 302.327 58.4081 302.721 59.8075C302.721 59.8075 302.323 61.4417 303.766 63.0031C305.21 64.5655 306.566 64.2389 305.962 65.6393Z" fill="#263238"/>
<path d="M311.533 89.2267C311.531 89.236 311.423 89.2241 311.215 89.1937C311.007 89.1612 310.703 89.0925 310.327 88.9542C309.581 88.6818 308.525 88.0884 307.625 86.9547C307.178 86.3928 306.76 85.7117 306.477 84.9109C306.188 84.1147 306.023 83.2122 306.008 82.2617C305.986 81.3107 306.121 80.3133 306.38 79.3154C306.51 78.8159 306.678 78.3174 306.874 77.8226C307.067 77.3257 307.304 76.8468 307.441 76.3401C307.588 75.8349 307.567 75.3189 307.435 74.8267C307.301 74.3344 307.072 73.8716 306.849 73.4139C306.624 72.9567 306.395 72.5006 306.248 72.0155C306.097 71.5346 306.041 71.016 306.139 70.5325C306.345 69.5604 306.935 68.8411 307.284 68.1027C307.652 67.3715 307.768 66.5985 307.751 65.905C307.688 64.4995 307.089 63.4602 306.6 62.8612C306.09 62.2616 305.704 62.033 305.723 62.0077C305.723 62.0077 306.132 62.2012 306.679 62.793C307.204 63.3844 307.85 64.4381 307.941 65.8968C307.971 66.6156 307.861 67.4298 307.484 68.2002C307.128 68.9654 306.559 69.6899 306.383 70.5795C306.202 71.4758 306.626 72.3989 307.086 73.2973C307.311 73.7555 307.549 74.2292 307.694 74.756C307.839 75.2792 307.86 75.8705 307.701 76.4093C307.555 76.9505 307.312 77.4356 307.124 77.9206C306.931 78.4057 306.765 78.8933 306.636 79.3819C306.379 80.3582 306.242 81.3309 306.257 82.2571C306.264 84.1173 306.902 85.7432 307.776 86.8361C308.634 87.9548 309.646 88.5585 310.367 88.8562C311.095 89.1519 311.539 89.1962 311.533 89.2267Z" fill="#455A64"/>
<path d="M311.019 63.1888C311.021 63.2058 310.749 63.2548 310.25 63.3033C309.754 63.3441 309.021 63.4019 308.125 63.2476C307.25 63.0876 306.144 62.6583 305.443 61.6207C305.099 61.1 304.963 60.47 304.739 59.8885C304.528 59.3002 304.121 58.7909 303.563 58.438C302.434 57.7223 301.106 57.6346 299.945 57.4932C298.777 57.3616 297.68 57.1139 296.937 56.5566C296.188 56.0236 295.804 55.3322 295.706 54.8337C295.649 54.584 295.654 54.3838 295.665 54.2517C295.684 54.1191 295.698 54.0515 295.708 54.053C295.741 54.0535 295.672 54.3368 295.807 54.8079C295.932 55.2744 296.32 55.9122 297.046 56.4008C297.761 56.908 298.81 57.1294 299.974 57.2476C301.125 57.3776 302.5 57.4493 303.709 58.2125C304.306 58.585 304.768 59.1691 304.984 59.794C305.214 60.4081 305.342 61.0123 305.651 61.487C306.28 62.4473 307.321 62.8864 308.161 63.0618C309.023 63.2357 309.749 63.2089 310.243 63.2001C310.741 63.1826 311.017 63.1692 311.019 63.1888Z" fill="#455A64"/>
<path d="M309.738 58.9865C309.741 58.9994 309.53 59.0654 309.134 59.0752C308.74 59.0861 308.152 59.0164 307.505 58.7084C307.182 58.5551 306.851 58.3353 306.546 58.0417C306.236 57.7496 305.983 57.3719 305.745 56.9736C305.28 56.1887 304.832 55.2207 303.867 54.8208C302.922 54.4152 301.881 54.5055 300.976 54.5669C300.063 54.6567 299.207 54.6836 298.509 54.5463C297.806 54.424 297.278 54.133 296.986 53.8636C296.838 53.7305 296.738 53.6113 296.682 53.5231C296.625 53.4364 296.598 53.3889 296.606 53.3832C296.627 53.3667 296.751 53.5489 297.052 53.7826C297.353 54.0153 297.86 54.2646 298.54 54.359C299.22 54.4674 300.037 54.4245 300.955 54.3203C301.864 54.2486 302.936 54.134 303.976 54.5752C304.49 54.7935 304.91 55.18 305.208 55.5984C305.512 56.0169 305.729 56.454 305.959 56.8487C306.187 57.244 306.42 57.6046 306.703 57.8833C306.982 58.1655 307.288 58.3822 307.59 58.5386C308.194 58.8528 308.755 58.9498 309.136 58.9705C309.52 58.9932 309.735 58.9633 309.738 58.9865Z" fill="#455A64"/>
<path d="M313.073 88.1132C313.046 88.1013 313.21 87.769 313.401 87.1338C313.59 86.5007 313.778 85.5492 313.745 84.3681C313.705 83.1952 313.423 81.7762 312.644 80.4279C312.267 79.7519 311.693 79.1503 311.226 78.4078C310.994 78.0373 310.795 77.6219 310.707 77.1621C310.621 76.7019 310.673 76.2132 310.821 75.7695C311.11 74.8788 311.628 74.1286 311.74 73.3097C311.878 72.4882 311.463 71.739 311.071 71.0723C310.872 70.7328 310.673 70.3974 310.518 70.0465C310.364 69.6956 310.265 69.3262 310.226 68.9691C310.148 68.2519 310.232 67.5929 310.285 67.0016C310.434 65.823 310.324 64.8545 310.04 64.2596C309.765 63.6574 309.404 63.4768 309.431 63.452C309.433 63.4484 309.455 63.4582 309.493 63.4819C309.531 63.5067 309.592 63.5392 309.658 63.5996C309.796 63.7116 309.979 63.9102 310.134 64.2142C310.461 64.8163 310.601 65.8292 310.474 67.0181C310.432 67.612 310.362 68.2627 310.447 68.9423C310.515 69.628 310.869 70.2751 311.283 70.9464C311.484 71.2859 311.696 71.6404 311.845 72.0429C311.997 72.4418 312.067 72.8979 312 73.3458C311.875 74.2483 311.343 75.012 311.076 75.851C310.937 76.27 310.893 76.7003 310.969 77.1142C311.047 77.528 311.228 77.9134 311.449 78.2695C311.892 78.9826 312.468 79.5966 312.858 80.3046C313.65 81.7055 313.917 83.1653 313.934 84.364C313.943 85.5709 313.722 86.5342 313.5 87.1658C313.384 87.4811 313.287 87.7226 313.203 87.8784C313.126 88.0363 313.081 88.1173 313.073 88.1132Z" fill="#455A64"/>
<path d="M292.054 184.257C292.054 184.257 288.579 151.315 288.379 139.142C288.179 126.969 293.852 114.959 293.852 114.959L316.082 114.019C316.082 114.019 320.477 126.37 320.555 131.558C320.708 141.64 317.877 151.596 318.203 159.594L318.946 184.257" fill="#263238"/>
<path d="M319.69 143.759C319.695 143.767 319.569 143.862 319.328 144.034C319.266 144.078 319.198 144.125 319.125 144.177C319.055 144.236 318.988 144.31 318.91 144.385C318.754 144.535 318.572 144.705 318.414 144.94C317.696 145.819 317.173 147.39 316.675 149.349C316.401 150.322 316.123 151.414 315.549 152.483C315.396 152.744 315.258 153.02 315.056 153.263C314.959 153.387 314.871 153.52 314.765 153.639L314.423 153.981C313.959 154.438 313.371 154.782 312.751 155.054C311.507 155.599 310.102 155.858 308.819 156.502C307.527 157.131 306.559 158.35 305.965 159.754C305.339 161.152 304.96 162.62 304.437 163.99C303.925 165.35 303.226 166.674 302.117 167.51C301.017 168.376 299.657 168.575 298.479 168.65C297.282 168.72 296.174 168.686 295.18 168.836C294.19 168.973 293.312 169.287 292.691 169.775C292.069 170.265 291.706 170.878 291.535 171.403C291.358 171.935 291.39 172.383 291.449 172.669C291.506 172.959 291.587 173.097 291.569 173.105C291.569 173.105 291.472 172.975 291.396 172.681C291.319 172.393 291.268 171.929 291.435 171.373C291.597 170.823 291.958 170.18 292.597 169.658C293.239 169.136 294.141 168.802 295.151 168.648C296.164 168.483 297.285 168.507 298.464 168.428C299.63 168.343 300.932 168.139 301.967 167.314C303.014 166.517 303.688 165.243 304.192 163.898C304.705 162.543 305.082 161.073 305.721 159.644C306.32 158.215 307.347 156.919 308.7 156.267C310.034 155.605 311.44 155.354 312.653 154.827C313.258 154.565 313.819 154.24 314.263 153.808L314.591 153.485C314.693 153.372 314.779 153.244 314.872 153.127C315.068 152.896 315.203 152.628 315.354 152.377C315.919 151.345 316.207 150.266 316.492 149.298C317.012 147.349 317.573 145.753 318.332 144.875C318.499 144.641 318.691 144.473 318.856 144.326C318.938 144.253 319.01 144.181 319.084 144.124C319.16 144.076 319.231 144.031 319.297 143.99C319.552 143.83 319.686 143.751 319.69 143.759Z" fill="#FAFAFA"/>
<path d="M319.828 128.514C319.837 128.514 319.847 128.665 319.857 128.956C319.861 129.246 319.826 129.676 319.702 130.216C319.444 131.29 318.659 132.765 317.191 134.1C316.465 134.77 315.589 135.417 314.587 136.001C313.591 136.592 312.492 137.155 311.366 137.791C310.244 138.429 309.088 139.15 308.071 140.108C307.041 141.054 306.27 142.298 305.575 143.615C304.873 144.93 304.252 146.269 303.411 147.428C302.993 148.007 302.522 148.536 302 148.988C301.475 149.438 300.903 149.803 300.322 150.106C299.156 150.711 297.968 151.085 296.867 151.43C295.764 151.771 294.736 152.073 293.836 152.45C292.935 152.822 292.155 153.242 291.524 153.689C290.892 154.135 290.413 154.603 290.072 155.027C289.385 155.878 289.24 156.495 289.201 156.474C289.192 156.471 289.242 156.328 289.344 156.056C289.464 155.793 289.648 155.4 289.989 154.963C290.323 154.521 290.802 154.033 291.435 153.567C292.068 153.101 292.854 152.663 293.761 152.275C294.668 151.882 295.703 151.568 296.8 151.218C297.895 150.865 299.069 150.485 300.206 149.887C300.772 149.588 301.326 149.23 301.832 148.794C302.334 148.355 302.789 147.842 303.196 147.275C304.015 146.141 304.631 144.813 305.337 143.489C306.033 142.166 306.828 140.887 307.889 139.916C308.934 138.938 310.111 138.211 311.243 137.575C312.379 136.942 313.479 136.388 314.473 135.809C315.47 135.239 316.337 134.611 317.061 133.959C318.523 132.663 319.314 131.236 319.6 130.189C319.879 129.133 319.786 128.511 319.828 128.514Z" fill="#FAFAFA"/>
<path d="M288.491 140.887C288.487 140.888 288.472 140.855 288.447 140.786C288.424 140.718 288.377 140.618 288.346 140.479C288.284 140.204 288.244 139.768 288.398 139.243C288.685 138.192 289.826 136.884 291.666 136.23C292.581 135.915 293.619 135.726 294.701 135.442C295.77 135.154 296.935 134.751 297.805 133.857C298.237 133.415 298.602 132.89 298.906 132.313C299.202 131.73 299.447 131.105 299.677 130.459C300.14 129.172 300.528 127.774 301.313 126.503C302.093 125.221 303.364 124.331 304.679 123.885C305.991 123.403 307.314 123.19 308.541 122.907C309.772 122.639 310.923 122.292 311.9 121.763C312.863 121.216 313.629 120.488 314.173 119.716C315.286 118.169 315.577 116.583 315.617 115.536C315.641 114.471 315.472 113.892 315.507 113.887C315.507 113.887 315.713 114.457 315.721 115.538C315.713 116.602 315.448 118.225 314.328 119.826C313.78 120.624 313 121.383 312.009 121.958C311.007 122.511 309.833 122.872 308.597 123.148C307.363 123.439 306.048 123.658 304.771 124.132C303.486 124.574 302.293 125.417 301.541 126.645C300.783 127.87 300.394 129.253 299.926 130.548C299.692 131.198 299.442 131.834 299.135 132.432C298.819 133.026 298.436 133.573 297.98 134.033C297.056 134.97 295.839 135.377 294.758 135.658C293.661 135.936 292.628 136.113 291.726 136.41C289.937 137.021 288.802 138.274 288.499 139.274C288.336 139.775 288.356 140.196 288.4 140.469C288.457 140.741 288.503 140.882 288.491 140.887Z" fill="#FAFAFA"/>
<path d="M317.916 168.742C317.925 168.741 317.937 168.852 317.951 169.066C317.964 169.279 317.947 169.598 317.857 169.997C317.674 170.792 317.06 171.88 315.906 172.785C315.338 173.243 314.65 173.664 313.86 174C313.072 174.338 312.201 174.605 311.291 174.889C310.382 175.173 309.428 175.469 308.501 175.908C307.566 176.336 306.704 176.962 305.961 177.76C305.208 178.549 304.559 179.41 303.838 180.171C303.121 180.936 302.306 181.566 301.46 182.031C299.762 182.969 298.001 183.291 296.553 183.307C295.093 183.323 293.935 183.017 293.175 182.746C292.792 182.612 292.507 182.479 292.318 182.379C292.127 182.284 292.03 182.23 292.034 182.221C292.038 182.213 292.144 182.251 292.34 182.329C292.535 182.413 292.824 182.53 293.208 182.647C293.97 182.884 295.116 183.157 296.549 183.117C297.97 183.077 299.69 182.741 301.338 181.815C302.161 181.353 302.945 180.741 303.645 179.99C304.351 179.24 304.998 178.379 305.766 177.574C306.522 176.76 307.43 176.102 308.387 175.67C309.339 175.224 310.306 174.93 311.218 174.652C312.13 174.375 312.997 174.117 313.773 173.795C314.548 173.476 315.226 173.074 315.788 172.636C316.929 171.77 317.546 170.736 317.755 169.971C317.959 169.197 317.879 168.741 317.916 168.742Z" fill="#FAFAFA"/>
<path d="M315.382 100.343L311.083 100.445C310.801 101.893 310.111 102.884 310.111 102.884C306.516 96.6442 303.729 88.285 303.038 84.9253C303.138 84.5899 303.258 84.2184 303.407 83.8036C303.579 83.3247 303.431 82.4176 303.35 81.9145C303.229 81.1663 303.02 80.1601 302.958 79.6941C302.766 78.2746 302.538 78.0517 302.042 78.2122C301.369 78.4305 302.318 82.1988 301.766 82.2808C301.469 82.3247 301.107 81.0337 301.001 79.9743C300.896 78.915 300.417 75.6564 300.067 75.4392C299.554 75.1208 299.106 75.6244 299.236 76.6792C299.367 77.7468 299.532 80.931 298.972 80.9738C298.421 81.0161 297.958 75.6141 297.958 75.6141C297.958 75.6141 298.045 74.4387 297.397 74.4671C296.228 74.5176 297.142 80.2132 297.242 80.753C297.312 81.1281 296.704 81.1972 296.651 80.7896C296.596 80.3701 296.314 75.3871 295.124 75.4268C294.21 75.4578 295.831 80.1204 295.318 81.2014C294.805 82.2819 294.449 77.5306 293.577 77.5961C293.252 77.6209 293.012 77.6843 293.609 80.3732C293.929 81.8185 294.871 84.4754 295.694 86.6756C297.077 94.1318 303.144 117.984 312.655 113.618C317.978 111.175 320.137 100.347 320.137 100.347L315.382 100.343Z" fill="#B78876"/>
<path d="M297.039 81.1172C297.039 81.1172 297.082 81.125 297.163 81.1002C297.236 81.078 297.38 80.9872 297.357 80.802C297.344 80.482 297.294 80.0151 297.22 79.4118C297.165 78.8045 296.983 78.0759 296.983 77.2137C296.976 76.7818 296.987 76.3174 297.012 75.8251C297.028 75.579 297.032 75.3236 297.086 75.0821C297.127 74.8483 297.284 74.5811 297.464 74.613L297.483 74.6167L297.492 74.6161C297.676 74.6079 297.819 74.7508 297.878 74.9696C297.943 75.1786 297.959 75.4252 297.946 75.6605L297.945 75.6703L297.946 75.677C298.066 76.997 298.196 78.4423 298.497 79.9851C298.539 80.1781 298.582 80.3721 298.642 80.5677C298.672 80.6652 298.706 80.7638 298.749 80.8634C298.777 80.9144 298.794 80.9629 298.837 81.0161C298.873 81.061 298.92 81.1394 299.052 81.1513C299.267 81.1353 299.328 80.9733 299.377 80.8804C299.423 80.7736 299.452 80.6678 299.473 80.563C299.518 80.353 299.54 80.1435 299.557 79.933C299.613 79.0914 299.584 78.2328 299.522 77.352C299.502 76.9067 299.392 76.4629 299.468 76.0594C299.503 75.8607 299.586 75.6605 299.722 75.578C299.788 75.5377 299.863 75.5295 299.944 75.5501C299.985 75.562 300.026 75.5785 300.067 75.6033C300.101 75.6358 300.093 75.6213 300.124 75.6791C300.297 76.0486 300.385 76.5295 300.482 76.9763C300.573 77.433 300.653 77.8984 300.725 78.369C300.798 78.8396 300.865 79.3159 300.921 79.7958C300.967 80.2751 301.036 80.7787 301.159 81.2633C301.221 81.5073 301.289 81.7509 301.391 81.9924C301.444 82.1136 301.498 82.2333 301.604 82.3572C301.642 82.4098 301.762 82.5084 301.913 82.4697C302.059 82.4212 302.1 82.3056 302.124 82.238C302.207 81.9413 302.182 81.6946 302.178 81.4351C302.168 81.1791 302.146 80.9258 302.125 80.673C302.088 80.2385 302.046 79.8086 302.032 79.385C302.025 79.174 302.025 78.9629 302.047 78.7643C302.06 78.6673 302.077 78.5672 302.11 78.4954C302.126 78.4588 302.145 78.432 302.16 78.4185C302.168 78.4103 302.173 78.4139 302.18 78.4056L302.247 78.3866C302.589 78.2452 302.703 78.7214 302.794 79.1053C302.873 79.5058 302.923 79.9191 303.004 80.3262C303.14 81.1389 303.314 81.9464 303.404 82.723C303.441 83.1074 303.469 83.5073 303.358 83.8334C303.236 84.2065 303.115 84.5755 302.996 84.9403L302.985 84.9733L302.993 85.0079C303.622 87.7824 304.493 90.2649 305.302 92.4687C306.119 94.6705 306.935 96.5735 307.656 98.1292C308.375 99.687 309.02 100.887 309.465 101.706C309.691 102.094 309.87 102.4 310.002 102.628C310.127 102.836 310.195 102.942 310.202 102.938C310.208 102.934 310.154 102.821 310.043 102.606C309.92 102.373 309.755 102.059 309.546 101.663C309.126 100.832 308.507 99.6231 307.812 98.0591C307.114 96.4966 306.32 94.5905 305.522 92.3882C304.732 90.187 303.875 87.6978 303.264 84.9521L303.261 85.0197C303.38 84.6596 303.501 84.2958 303.623 83.9279C303.761 83.5068 303.721 83.0956 303.686 82.6931C303.594 81.8861 303.425 81.1017 303.29 80.2854C303.211 79.8819 303.162 79.4676 303.079 79.0445C303.03 78.8334 302.984 78.6208 302.868 78.4056C302.813 78.3014 302.726 78.1827 302.583 78.1188C302.439 78.0563 302.292 78.0739 302.176 78.1022L302.09 78.127C302.051 78.1445 302.002 78.1652 301.972 78.1936C301.906 78.2508 301.869 78.3164 301.842 78.3773C301.788 78.5011 301.772 78.6151 301.756 78.7297C301.73 78.9562 301.732 79.1766 301.738 79.3953C301.753 79.8329 301.795 80.2658 301.832 80.6988C301.853 80.9506 301.874 81.2013 301.885 81.4485C301.894 81.6895 301.903 81.9557 301.847 82.142C301.834 82.1962 301.809 82.1859 301.838 82.2122L301.839 82.2148C301.837 82.1972 301.843 82.2411 301.842 82.2338L301.841 82.2287C301.84 82.222 301.841 82.2158 301.843 82.2106C301.846 82.206 301.857 82.1879 301.85 82.1869C301.847 82.1853 301.834 82.1786 301.819 82.1585C301.762 82.093 301.706 81.9856 301.661 81.8788C301.569 81.6626 301.502 81.4279 301.443 81.1941C301.324 80.7209 301.257 80.2514 301.21 79.7638C301.152 79.2782 301.084 78.7999 301.01 78.3262C300.936 77.8525 300.855 77.384 300.761 76.9216C300.655 76.4562 300.586 76.0088 300.369 75.5439C300.355 75.497 300.264 75.3927 300.207 75.3623C300.148 75.3277 300.084 75.3009 300.015 75.2813C299.876 75.2431 299.706 75.2606 299.578 75.3416C299.322 75.5109 299.243 75.7797 299.197 76.013C299.155 76.2534 299.161 76.4908 299.188 76.7199C299.214 76.9402 299.235 77.1559 299.253 77.3742C299.318 78.2431 299.35 79.0981 299.3 79.9155C299.285 80.1193 299.264 80.321 299.225 80.5114C299.206 80.6069 299.18 80.6993 299.146 80.7787C299.13 80.8179 299.109 80.8546 299.09 80.8752C299.072 80.918 299.055 80.8654 299.057 80.9351C299.083 80.8819 299.058 80.9113 299.037 80.867C299.015 80.8427 298.997 80.7963 298.976 80.7601C298.939 80.676 298.907 80.5873 298.879 80.4954C298.821 80.3123 298.777 80.1224 298.736 79.9351C298.43 78.4196 298.286 76.9707 298.153 75.66V75.6765C298.164 75.4113 298.147 75.1579 298.069 74.9092C298.03 74.7869 297.972 74.6621 297.867 74.5656C297.765 74.466 297.617 74.4216 297.485 74.4257L297.513 74.4288C297.306 74.3922 297.155 74.5176 297.068 74.6419C296.98 74.7699 296.94 74.9087 296.91 75.0429C296.853 75.3138 296.854 75.5713 296.841 75.8184C296.823 76.3148 296.819 76.7818 296.833 77.2183C296.85 78.0986 297.048 78.8272 297.118 79.4273C297.208 80.0269 297.275 80.4923 297.304 80.8061C297.336 80.9552 297.216 81.0512 297.153 81.0765C297.08 81.1064 297.038 81.111 297.039 81.1172Z" fill="#A36957"/>
<path d="M263.435 107.448C263.435 107.448 262.007 107.38 260.445 107.79C257.781 108.492 253.181 111.279 252.99 114.723H256.331C256.331 114.723 254.46 118.706 255.01 118.337C256.437 117.381 259.277 114.495 259.277 114.495L263.435 107.448Z" fill="#B78876"/>
<path d="M309.011 47.4947C308.937 47.5014 308.634 44.7387 308.333 41.3254C308.033 37.9105 307.85 35.138 307.923 35.1318C307.997 35.1251 308.301 37.8873 308.601 41.3022C308.901 44.715 309.084 47.488 309.011 47.4947Z" fill="#263238"/>
<path d="M323.669 35.3001C323.73 35.3429 321.472 38.6195 318.628 42.617C315.783 46.616 313.428 49.8219 313.367 49.7791C313.306 49.7362 315.563 46.4602 318.409 42.4612C321.253 38.4637 323.608 35.2573 323.669 35.3001Z" fill="#263238"/>
<path d="M329.759 50.149C329.774 50.2217 327.139 50.8244 323.876 51.4952C320.61 52.166 317.953 52.6511 317.938 52.5783C317.923 52.5055 320.557 51.9029 323.821 51.2321C327.086 50.5618 329.744 50.0767 329.759 50.149Z" fill="#263238"/>
<path d="M154.262 121.025L136.016 214.833L133.627 227.113L255.436 226.512C260.902 226.485 265.747 221.631 267.506 214.42L289.105 125.855C290.44 120.38 287.511 114.686 283.361 114.691L160.077 114.82C157.355 114.824 154.975 117.364 154.262 121.025Z" fill="#21B99F"/>
<g opacity="0.5">
<path d="M154.262 121.025L136.016 214.833L133.627 227.113L255.436 226.512C260.902 226.485 265.747 221.631 267.506 214.42L289.105 125.855C290.44 120.38 287.511 114.686 283.361 114.691L160.077 114.82C157.355 114.824 154.975 117.364 154.262 121.025Z" fill="black"/>
</g>
<path d="M243.752 208.477L230.855 104.551C230.326 100.292 226.934 97.1159 222.929 97.1293L194.649 97.2217C192.556 97.2284 190.55 98.1185 189.062 99.699L175.633 113.974L96.9817 114.384C92.1751 114.41 88.4826 118.957 89.1199 124.067L101.094 220.122C101.624 224.374 105.01 227.547 109.01 227.539L246.084 227.268C261.35 227.584 262.808 223.075 262.808 223.075C245.312 226.953 243.753 208.489 243.752 208.477Z" fill="#21B99F"/>
<g opacity="0.5">
<path d="M184.646 187.678L180.024 192.643L144.418 160.612L149.041 155.647L184.646 187.678Z" fill="white"/>
<path d="M178.086 154.547L183.195 159.143L150.979 193.744L145.87 189.148L178.086 154.547Z" fill="white"/>
</g>
<path d="M263.325 53.553C262.995 53.4116 262.759 53.0912 262.742 52.7088L262.536 47.9183C262.522 47.6169 262.651 47.3269 262.883 47.135C263.116 46.9425 263.425 46.8708 263.718 46.9399C264.488 47.1216 265.338 46.9539 266.048 46.4797C266.702 46.0431 267.141 45.4002 267.252 44.7155C267.364 44.0333 267.153 43.2784 266.673 42.6437C266.16 41.9642 265.401 41.5065 264.64 41.4193C263.086 41.2402 261.409 42.4306 260.977 44.0189C260.837 44.5318 260.309 44.8352 259.796 44.6953C259.274 44.5519 258.979 44.0266 259.119 43.5137C259.797 41.0173 262.373 39.2196 264.861 39.5059C266.151 39.6545 267.373 40.3749 268.209 41.4822C269.005 42.5349 269.348 43.8259 269.153 45.0251C268.956 46.2351 268.214 47.3486 267.117 48.0808C266.324 48.6097 265.415 48.9018 264.506 48.9333L264.666 52.6257C264.688 53.1572 264.276 53.6061 263.745 53.6289C263.596 53.6356 263.454 53.6077 263.325 53.553Z" fill="#21B99F"/>
<path d="M264.736 55.5097C264.766 55.9437 264.439 56.3199 264.005 56.3493C263.571 56.3792 263.195 56.0515 263.165 55.6176C263.135 55.1836 263.462 54.8075 263.896 54.7775C264.33 54.7476 264.706 55.0758 264.736 55.5097Z" fill="#21B99F"/>
<path d="M246.744 46.7981C246.75 46.7981 246.766 46.6918 246.79 46.4838C246.815 46.2594 246.849 45.9539 246.892 45.5612C246.915 45.1531 247.019 44.6598 247.141 44.0782C247.209 43.7893 247.244 43.4678 247.35 43.1427C247.451 42.8156 247.558 42.4683 247.67 42.1009C248.17 40.652 248.94 38.9141 250.236 37.1855C251.523 35.4605 253.333 33.7562 255.655 32.4651C256.799 31.783 258.107 31.3078 259.479 30.8883C260.872 30.5585 262.348 30.2758 263.89 30.3124C264.662 30.2711 265.439 30.3841 266.232 30.4507C266.628 30.4884 267.017 30.5941 267.415 30.6633C267.813 30.7365 268.213 30.8145 268.602 30.9497C270.195 31.3583 271.743 32.1096 273.217 33.041C276.178 34.9032 278.67 37.9332 280.038 41.6061C280.724 43.4436 281.052 45.458 281.049 47.4926C281.09 49.5313 280.695 51.602 279.97 53.5515L279.737 54.1408L279.707 54.2187L279.738 54.2914C281.032 57.2724 282.302 60.196 283.531 63.0289L283.748 62.7822C281.084 61.7585 278.5 60.7657 276.021 59.8131L275.925 59.7765L275.85 59.8493C273.707 61.9267 271.146 63.3307 268.553 64.0624C265.953 64.7956 263.333 64.8333 260.951 64.4097C258.563 63.9871 256.414 63.0738 254.621 61.8999C252.823 60.726 251.382 59.2987 250.27 57.8482C249.167 56.3817 248.441 54.8781 247.892 53.535C247.409 52.1624 247.112 50.9441 246.969 49.9359C246.908 49.4323 246.854 48.9844 246.807 48.5938C246.797 48.2078 246.788 47.8796 246.781 47.6077C246.773 47.3543 246.766 47.1541 246.761 47.0035C246.755 46.8677 246.749 46.7981 246.744 46.7981C246.739 46.7981 246.735 46.8667 246.732 47.0029C246.73 47.1541 246.727 47.3538 246.724 47.6087C246.723 47.8817 246.722 48.2124 246.722 48.6005C246.762 48.9942 246.807 49.4457 246.859 49.9534C246.986 50.9715 247.268 52.2047 247.741 53.5974C248.28 54.9602 249.001 56.4891 250.107 57.9834C251.22 59.4618 252.672 60.9189 254.489 62.1212C256.3 63.3235 258.478 64.2631 260.902 64.7038C263.32 65.1445 265.983 65.1171 268.632 64.3792C271.273 63.6434 273.886 62.2198 276.075 60.1062L275.905 60.1424C278.382 61.0985 280.964 62.0954 283.628 63.1233L284.018 63.2734L283.846 62.8766C282.617 60.0428 281.35 57.1186 280.057 54.1371L280.058 54.2873L280.296 53.6851C281.038 51.6929 281.44 49.5747 281.399 47.4911C281.4 45.4116 281.062 43.3522 280.359 41.4755C278.958 37.7237 276.407 34.6406 273.388 32.751C271.883 31.8057 270.305 31.0472 268.683 30.6354C268.286 30.4997 267.879 30.4218 267.475 30.3485C267.07 30.2794 266.673 30.1736 266.271 30.1364C265.465 30.0719 264.674 29.961 263.891 30.0059C262.324 29.976 260.824 30.2691 259.412 30.6122C258.021 31.0451 256.697 31.5358 255.54 32.2345C253.191 33.5591 251.37 35.3006 250.082 37.0586C248.785 38.8197 248.025 40.586 247.542 42.0545C247.433 42.4265 247.331 42.779 247.235 43.1097C247.133 43.4389 247.103 43.7635 247.04 44.0555C246.928 44.6438 246.834 45.1412 246.822 45.5525C246.794 45.9472 246.771 46.2558 246.755 46.4813C246.742 46.6908 246.738 46.7976 246.744 46.7981Z" fill="#263238"/>
</svg>
